<svg width="1920" height="316" viewBox="0 0 1920 316" fill="none" xmlns="http://www.w3.org/2000/svg">
<path opacity="0.2" d="M1878.42 0.00103227C1812.44 -0.0998855 1748.1 20.5153 1694.46 58.9364C1640.82 97.3574 1600.59 151.646 1579.46 214.148C1554.53 287.563 1517.22 356.173 1469.16 417.009C1393.85 512.033 1294.31 584.985 1181.02 628.18C1067.73 671.374 944.885 683.21 825.432 662.443C705.978 641.675 594.338 589.075 502.274 510.179C410.21 431.283 341.131 329.013 302.315 214.148C293.752 188.758 281.935 164.584 267.161 142.229C238.382 98.4768 199.173 62.5721 153.063 37.744C106.954 12.916 55.3932 -0.0565917 3.02441 0.00103227C-46.8285 -0.126567 -95.9998 11.5771 -140.45 34.1497C-184.9 56.7222 -223.36 89.5202 -252.669 129.848C-281.978 170.175 -301.3 216.884 -309.047 266.131C-316.794 315.379 -312.745 365.761 -297.233 413.139C-297.233 413.139 -297.233 415.719 -297.233 417.009C-209.569 675.54 -43.1046 900.105 178.767 1059.15C400.639 1218.2 666.768 1303.74 939.757 1303.74C1212.75 1303.74 1478.87 1218.2 1700.75 1059.15C1922.62 900.105 2089.08 675.54 2176.75 417.009L2178.36 413.139C2193.86 365.787 2197.91 315.432 2190.18 266.21C2182.45 216.988 2163.16 170.298 2133.89 129.978C2104.62 89.6573 2066.2 56.8542 2021.79 34.2599C1977.38 11.6656 1928.25 -0.0754644 1878.42 0.00103227Z" fill="url(#paint0_linear_226_6486)"/>
<defs>
<linearGradient id="paint0_linear_226_6486" x1="940.562" y1="0" x2="940.562" y2="1303.74" gradientUnits="userSpaceOnUse">
<stop stop-color="white"/>
<stop offset="1" stop-color="white" stop-opacity="0"/>
</linearGradient>
</defs>
</svg>
