<svg width="91" height="188" viewBox="0 0 91 188" fill="none" xmlns="http://www.w3.org/2000/svg">
<path d="M43.8462 0.54969C35.9788 0.541963 28.2336 2.49466 21.3102 6.23113C14.3867 9.9676 8.50314 15.3703 4.19138 21.9509C1.97937 25.2861 0.220795 28.9007 -1.0379 32.6997C-4.78067 43.7214 -10.381 54.0219 -17.597 63.1551C-28.9026 77.4211 -43.8468 88.3732 -60.8551 94.858C-77.8634 101.343 -96.306 103.12 -114.24 100.002C-132.173 96.8844 -148.934 88.9872 -162.755 77.1426C-176.577 65.2979 -186.948 49.9442 -192.775 32.6997C-195.964 23.3163 -202.013 15.1683 -210.073 9.4015C-218.133 3.63466 -227.798 0.538952 -237.708 0.54969C-245.196 0.519901 -252.584 2.27 -259.263 5.65574C-265.942 9.04149 -271.721 13.9662 -276.123 20.0235C-280.525 26.0808 -283.425 33.0976 -284.583 40.4956C-285.742 47.8936 -285.126 55.4608 -282.786 62.5738C-282.786 62.5738 -282.786 62.9615 -282.786 63.1551C-269.625 101.968 -244.633 135.683 -211.324 159.56C-178.014 183.438 -138.06 196.279 -97.0759 196.279C-56.092 196.279 -16.138 183.438 17.1717 159.56C50.4813 135.683 75.4724 101.968 88.6334 63.1551C88.6541 62.962 88.6541 62.767 88.6334 62.5738C90.9657 55.4841 91.5855 47.9429 90.4423 40.5674C89.299 33.1919 86.4252 26.192 82.0559 20.1411C77.6866 14.0902 71.9461 9.16033 65.3047 5.75504C58.6633 2.34975 51.3097 0.565894 43.8462 0.54969Z" fill="url(#paint0_linear_226_6717)"/>
<defs>
<linearGradient id="paint0_linear_226_6717" x1="91.0002" y1="0.549327" x2="-285.152" y2="160.894" gradientUnits="userSpaceOnUse">
<stop stop-color="#FF6608"/>
<stop offset="1" stop-color="#4131AB"/>
</linearGradient>
</defs>
</svg>
