<svg width="1920" height="540" viewBox="0 0 1920 540" fill="none" xmlns="http://www.w3.org/2000/svg">
<path opacity="0.2" d="M2011.28 -241.315C1952.59 -241.373 1894.81 -226.806 1843.16 -198.932C1791.51 -171.058 1747.62 -130.754 1715.45 -81.6629C1698.95 -56.7821 1685.83 -29.8179 1676.44 -1.47745C1648.52 80.744 1606.74 157.585 1552.91 225.719C1468.57 332.142 1357.09 413.845 1230.21 462.221C1103.33 510.597 965.746 523.855 831.963 500.596C698.179 477.338 573.146 418.425 470.037 330.065C366.928 241.704 289.562 127.166 246.09 -1.47745C222.302 -71.4768 177.174 -132.26 117.049 -175.281C56.9236 -218.301 -15.1743 -241.395 -89.1051 -241.315C-144.966 -241.537 -200.079 -228.482 -249.904 -203.224C-299.728 -177.967 -342.839 -141.229 -375.68 -96.0412C-408.521 -50.8537 -430.154 1.49106 -438.795 56.6797C-447.437 111.868 -442.84 168.319 -425.383 221.383C-425.383 221.383 -425.383 224.274 -425.383 225.719C-327.202 515.265 -140.768 766.772 107.721 944.899C356.21 1123.03 654.265 1218.82 960.003 1218.82C1265.74 1218.82 1563.8 1123.03 1812.29 944.899C2060.77 766.772 2247.21 515.265 2345.39 225.719C2345.54 224.278 2345.54 222.823 2345.39 221.383C2362.79 168.493 2367.41 112.236 2358.88 57.2154C2350.35 2.19479 2328.91 -50.0243 2296.32 -95.1638C2263.72 -140.303 2220.9 -177.08 2171.36 -202.483C2121.81 -227.887 2066.95 -241.194 2011.28 -241.315Z" fill="url(#paint0_linear_226_8470)"/>
<defs>
<linearGradient id="paint0_linear_226_8470" x1="960.001" y1="-241.318" x2="960.001" y2="1218.82" gradientUnits="userSpaceOnUse">
<stop stop-color="white"/>
<stop offset="1" stop-color="white" stop-opacity="0"/>
</linearGradient>
</defs>
</svg>
