<svg width="91" height="188" viewBox="0 0 91 188" fill="none" xmlns="http://www.w3.org/2000/svg">
<path d="M-237.999 0.54969C-230.131 0.541963 -222.386 2.49466 -215.462 6.23113C-208.539 9.9676 -202.655 15.3703 -198.344 21.9509C-196.132 25.2861 -194.373 28.9007 -193.114 32.6997C-189.372 43.7214 -183.771 54.0219 -176.555 63.1551C-165.25 77.4211 -150.306 88.3732 -133.297 94.858C-116.289 101.343 -97.8463 103.12 -79.9127 100.002C-61.9791 96.8844 -45.2186 88.9872 -31.3969 77.1426C-17.5753 65.2979 -7.20449 49.9442 -1.37706 32.6997C1.81165 23.3163 7.86112 15.1683 15.9208 9.4015C23.9805 3.63466 33.6452 0.538952 43.5555 0.54969C51.0436 0.519901 58.4314 2.27 65.1104 5.65574C71.7894 9.04149 77.5683 13.9662 81.9706 20.0235C86.3729 26.0808 89.2727 33.0976 90.4311 40.4956C91.5895 47.8936 90.9733 55.4608 88.6332 62.5738C88.6332 62.5738 88.6332 62.9615 88.6332 63.1551C75.4722 101.968 50.4809 135.683 17.1712 159.56C-16.1385 183.438 -56.0925 196.279 -97.0764 196.279C-138.06 196.279 -178.014 183.438 -211.324 159.56C-244.634 135.683 -269.625 101.968 -282.786 63.1551C-282.806 62.962 -282.806 62.767 -282.786 62.5738C-285.118 55.4841 -285.738 47.9429 -284.595 40.5674C-283.451 33.1919 -280.578 26.192 -276.208 20.1411C-271.839 14.0902 -266.098 9.16033 -259.457 5.75504C-252.816 2.34975 -245.462 0.565894 -237.999 0.54969Z" fill="url(#paint0_linear_226_6686)"/>
<defs>
<linearGradient id="paint0_linear_226_6686" x1="-285.153" y1="0.549327" x2="91" y2="160.894" gradientUnits="userSpaceOnUse">
<stop stop-color="#FF6608"/>
<stop offset="1" stop-color="#4131AB"/>
</linearGradient>
</defs>
</svg>
