<svg width="33" height="33" viewBox="0 0 33 33" fill="none" xmlns="http://www.w3.org/2000/svg">
<g clip-path="url(#clip0_226_6532)">
<path d="M32.3179 18.0146H0.460938V18.0151H32.3179V18.0146Z" fill="#C42126"/>
<path d="M30.6544 9.28027H2.11719V9.28075H30.6544V9.28027Z" fill="#C42126"/>
<path d="M31.7902 12.1914H0.984375V12.1919H31.7902V12.1914Z" fill="#C42126"/>
<path d="M7.26273 29.6602H25.5094L25.5104 29.6592H7.26172L7.26273 29.6602Z" fill="#C42126"/>
<path d="M16.3886 0.518555C16.0744 0.518555 15.7626 0.529904 15.4531 0.547604H17.3244C17.0146 0.529904 16.7029 0.518555 16.3886 0.518555Z" fill="#C42126"/>
<path d="M32.3202 15.1035H0.453125V15.104H32.3202V15.1035Z" fill="#C42126"/>
<path d="M21.1143 6.36959H28.7544C27.8469 5.26484 26.7922 4.28689 25.6238 3.45898H19.8867C20.3614 4.29419 20.7697 5.2797 21.1143 6.36959Z" fill="#E7E7E7"/>
<path d="M19.8865 3.4592H25.6235C23.2518 1.77846 20.4044 0.725931 17.3207 0.547852H16.8281C18.2795 0.730525 18.9462 1.80467 19.8865 3.4592Z" fill="#DC3027"/>
<path d="M31.7917 12.1919C31.5072 11.1773 31.1257 10.2039 30.6568 9.28125H21.8672C22.0453 10.2158 22.1858 11.1919 22.2898 12.1919H31.7917Z" fill="#E7E7E7"/>
<path d="M21.3698 9.2812H30.6536C30.1245 8.24062 29.489 7.26416 28.7543 6.37012H20.6445C20.9305 7.27531 21.1733 8.25177 21.3698 9.2812Z" fill="#DC3027"/>
<path d="M22.625 18.0143H32.3147C32.3607 17.522 32.3867 17.023 32.3867 16.5188C32.3867 16.0415 32.3617 15.5704 32.3208 15.1035H22.6273C22.6588 16.0716 22.6583 17.0468 22.625 18.0143Z" fill="#E7E7E7"/>
<path d="M32.3197 15.103C32.232 14.1033 32.0519 13.1307 31.7889 12.1924H21.8789C21.9784 13.1455 22.0442 14.1207 22.0762 15.103H32.3197Z" fill="#DC3027"/>
<path d="M21.6992 23.8369H30.6141C31.0896 22.9153 31.4771 21.9411 31.7677 20.9258H22.1302C22.0241 21.9272 21.8801 22.9032 21.6992 23.8369Z" fill="#E7E7E7"/>
<path d="M31.7647 20.9253C32.0333 19.9872 32.2197 19.0146 32.3124 18.0146H22.3205C22.2864 18.9977 22.2187 19.9726 22.1172 20.9253H31.7647Z" fill="#DC3027"/>
<path d="M25.5106 29.6587C26.696 28.8341 27.7656 27.8551 28.6875 26.748H21.1805C20.8296 27.8425 20.413 28.8264 19.9297 29.6587H25.5106Z" fill="#E7E7E7"/>
<path d="M20.8984 26.748H28.6878C29.4311 25.855 30.0763 24.8785 30.6131 23.8369H21.6328C21.4336 24.8671 21.1883 25.844 20.8984 26.748Z" fill="#DC3027"/>
<path d="M15.8079 32.5074C15.7756 32.5064 15.7433 32.5049 15.7109 32.5039C15.7433 32.5049 15.7757 32.5064 15.8079 32.5074Z" fill="#DC3027"/>
<path d="M16.3867 32.5189C19.7788 32.5189 22.9218 31.4601 25.5103 29.6602H19.7197C18.692 31.4308 18.0139 32.5189 16.3867 32.5189Z" fill="#DC3027"/>
<path d="M16.3884 32.5182C16.1941 32.5182 16.0011 32.5137 15.8086 32.5068C16.0031 32.5134 16.1963 32.5182 16.3884 32.5182Z" fill="#C42126"/>
<path d="M20.4197 3.45898H7.15044C5.98178 4.28689 4.92729 5.26477 4.01953 6.36959H21.647C21.3024 5.2797 20.8944 4.29419 20.4197 3.45898Z" fill="#F3F4F5"/>
<path d="M7.14844 3.4592H20.4177C19.4772 1.80467 18.281 0.730525 16.8296 0.547852H15.4509C12.3673 0.725931 9.51988 1.77846 7.14844 3.4592Z" fill="#E73625"/>
<path d="M0.984375 12.1919H22.7937C22.6896 11.1917 22.5491 10.2158 22.371 9.28125H2.11919C1.65028 10.2039 1.26886 11.1773 0.984375 12.1919Z" fill="#F3F4F5"/>
<path d="M4.0162 6.36914C3.28207 7.26318 2.64595 8.23958 2.11719 9.28022H22.3688C22.1724 8.251 21.9297 7.2746 21.6437 6.36914C21.6437 6.36914 4.0162 6.36914 4.0162 6.36914Z" fill="#E73625"/>
<path d="M0.386719 16.5186C0.386719 17.0228 0.412998 17.5218 0.458734 18.0141H22.9882C23.0216 17.0465 23.0221 16.0716 22.9905 15.1035H0.452654C0.411715 15.5702 0.386719 16.0413 0.386719 16.5186Z" fill="#F3F4F5"/>
<path d="M0.453125 15.103H22.9907C22.9587 14.1205 22.8927 13.1456 22.7934 12.1924H0.983647C0.720649 13.1309 0.540543 14.1033 0.453125 15.103Z" fill="#E73625"/>
<path d="M22.7863 20.9258H1.00781C1.29837 21.9414 1.68615 22.9153 2.16134 23.8369H22.3553C22.5362 22.9034 22.6799 21.9274 22.7863 20.9258Z" fill="#F3F4F5"/>
<path d="M1.00471 20.9253H22.7832C22.8845 19.9726 22.9524 18.9974 22.9865 18.0146H0.457031C0.549719 19.0148 0.736445 19.9872 1.00471 20.9253Z" fill="#E73625"/>
<path d="M7.26279 29.6587H20.3694C20.8527 28.8262 21.2695 27.8425 21.6202 26.748H4.08594C5.00781 27.8551 6.07717 28.8341 7.26279 29.6587Z" fill="#F3F4F5"/>
<path d="M2.16016 23.8369C2.69703 24.8785 3.34219 25.855 4.08545 26.748H21.6197C21.9092 25.8441 22.1545 24.8672 22.3538 23.8369H2.16016Z" fill="#E73625"/>
<path d="M15.7119 32.5041C15.7442 32.5051 15.7765 32.5066 15.8089 32.5076C16.0014 32.5144 16.1944 32.5189 16.3887 32.5189C18.0159 32.5189 19.3427 31.4309 20.3707 29.6602H7.26562C9.68057 31.3397 12.5793 32.3735 15.7119 32.5041Z" fill="#E73625"/>
<path d="M16.0542 0.527344C7.85503 0.694141 1.17233 7.0248 0.453125 15.0775H16.0544V0.527344H16.0542Z" fill="#283991"/>
<path d="M3.58824 9.58301L3.83198 10.3336H4.62172L3.98283 10.7977L4.22685 11.5488L3.58824 11.0844L2.94983 11.5488L3.19337 10.7977L2.55469 10.3336H3.34442L3.58824 9.58301Z" fill="#EFEFEF"/>
<path d="M3.58824 12.2354L3.83198 12.9864H4.62172L3.98283 13.4505L4.22685 14.2016L3.58824 13.7372L2.94983 14.2016L3.19337 13.4505L2.55469 12.9864H3.34442L3.58824 12.2354Z" fill="#EFEFEF"/>
<path d="M6.24085 5.60449L6.48466 6.35532H7.27413L6.63545 6.8197L6.87926 7.57025L6.24085 7.10641L5.60217 7.57025L5.84598 6.8197L5.20703 6.35532H5.99677L6.24085 5.60449Z" fill="#EFEFEF"/>
<path d="M6.24085 8.25684L6.48466 9.00766H7.27413L6.63545 9.4715L6.87926 10.2226L6.24085 9.75875L5.60217 10.2226L5.84598 9.4715L5.20703 9.00766H5.99677L6.24085 8.25684Z" fill="#EFEFEF"/>
<path d="M6.24085 10.9092L6.48466 11.6603H7.27413L6.63545 12.1238L6.87926 12.8749L6.24085 12.4106L5.60217 12.8749L5.84598 12.1238L5.20703 11.6603H5.99677L6.24085 10.9092Z" fill="#EFEFEF"/>
<path d="M1.57527 12.8752L1.33126 12.1241L1.96994 11.6603H1.18067L1.16297 11.6055C1.0763 11.8735 0.997999 12.1448 0.925781 12.4192L0.936928 12.4109L1.57527 12.8752Z" fill="#EFEFEF"/>
<path d="M2.95006 8.89663L3.58847 8.43231L4.22715 8.89663L3.98314 8.14553L4.62182 7.68122H3.83208L3.58827 6.93066L3.34446 7.68122H3.05342C2.99938 7.7631 2.94709 7.84545 2.89453 7.92854L3.19367 8.14553L2.95006 8.89663Z" fill="#EFEFEF"/>
<path d="M6.24078 4.45513L6.87919 4.91897L6.63538 4.16842L7.27379 3.7041H6.81778C6.43048 3.99365 6.05683 4.30009 5.69783 4.62341L5.60156 4.91897L6.24078 4.45513Z" fill="#EFEFEF"/>
<path d="M8.25391 3.59237L8.89259 3.12805L9.531 3.59237L9.28718 2.84128L9.92559 2.37743H9.13613L9.10302 2.27637C8.8355 2.41303 8.57075 2.55524 8.312 2.70657L8.49745 2.84121L8.25391 3.59237Z" fill="#EFEFEF"/>
<path d="M8.89313 4.2793L9.13694 5.02965H9.9264L9.28772 5.49396L9.53154 6.24506L8.89313 5.78067L8.25445 6.24506L8.49826 5.49396L7.85938 5.02965H8.64904L8.89313 4.2793Z" fill="#EFEFEF"/>
<path d="M8.89313 6.93164L9.13694 7.68199H9.9264L9.28772 8.14631L9.53154 8.8974L8.89313 8.43302L8.25445 8.8974L8.49826 8.14631L7.85938 7.68199H8.64904L8.89313 6.93164Z" fill="#EFEFEF"/>
<path d="M8.89313 9.58301L9.13694 10.3336H9.9264L9.28772 10.7977L9.53154 11.5488L8.89313 11.0844L8.25445 11.5488L8.49826 10.7977L7.85938 10.3336H8.64904L8.89313 9.58301Z" fill="#EFEFEF"/>
<path d="M8.89313 12.2354L9.13694 12.9864H9.9264L9.28772 13.4505L9.53154 14.2016L8.89313 13.7372L8.25445 14.2016L8.49826 13.4505L7.85938 12.9864H8.64904L8.89313 12.2354Z" fill="#EFEFEF"/>
<path d="M11.5455 2.95312L11.7893 3.70395H12.5787L11.9403 4.16833L12.1839 4.91889L11.5455 4.45504L10.9066 4.91889L11.1506 4.16833L10.5117 3.70395H11.3014L11.5455 2.95312Z" fill="#EFEFEF"/>
<path d="M11.5455 5.60449L11.7893 6.35532H12.5787L11.9403 6.8197L12.1839 7.57025L11.5455 7.10641L10.9066 7.57025L11.1506 6.8197L10.5117 6.35532H11.3014L11.5455 5.60449Z" fill="#EFEFEF"/>
<path d="M11.5455 8.25684L11.7893 9.00766H12.5787L11.9403 9.4715L12.1839 10.2226L11.5455 9.75875L10.9066 10.2226L11.1506 9.4715L10.5117 9.00766H11.3014L11.5455 8.25684Z" fill="#EFEFEF"/>
<path d="M11.5455 10.9092L11.7893 11.6603H12.5787L11.9403 12.1238L12.1839 12.8749L11.5455 12.4106L10.9066 12.8749L11.1506 12.1238L10.5117 11.6603H11.3014L11.5455 10.9092Z" fill="#EFEFEF"/>
<path d="M14.1978 1.62695L14.4416 2.37778H15.2311L14.5924 2.84162L14.8362 3.59271L14.1978 3.12833L13.5589 3.59271L13.8029 2.84162L13.1641 2.37778H13.9535L14.1978 1.62695Z" fill="#EFEFEF"/>
<path d="M14.1978 4.2793L14.4416 5.02965H15.2311L14.5924 5.49396L14.8362 6.24506L14.1978 5.78067L13.5589 6.24506L13.8029 5.49396L13.1641 5.02965H13.9535L14.1978 4.2793Z" fill="#EFEFEF"/>
<path d="M14.1978 6.93164L14.4416 7.68199H15.2311L14.5924 8.14631L14.8362 8.8974L14.1978 8.43302L13.5589 8.8974L13.8029 8.14631L13.1641 7.68199H13.9535L14.1978 6.93164Z" fill="#EFEFEF"/>
<path d="M14.1978 9.58301L14.4416 10.3336H15.2311L14.5924 10.7977L14.8362 11.5488L14.1978 11.0844L13.5589 11.5488L13.8029 10.7977L13.1641 10.3336H13.9535L14.1978 9.58301Z" fill="#EFEFEF"/>
<path d="M14.1978 12.2354L14.4416 12.9864H15.2311L14.5924 13.4505L14.8362 14.2016L14.1978 13.7372L13.5589 14.2016L13.8029 13.4505L13.1641 12.9864H13.9535L14.1978 12.2354Z" fill="#EFEFEF"/>
</g>
<defs>
<clipPath id="clip0_226_6532">
<rect width="32" height="32" fill="white" transform="translate(0.386719 0.518555)"/>
</clipPath>
</defs>
</svg>
