<svg width="248" height="96" viewBox="0 0 248 96" fill="none" xmlns="http://www.w3.org/2000/svg">
<path d="M247.82 52.2908C247.431 49.4667 246.415 46.7653 244.848 44.3838C244.118 43.2791 243.279 42.2506 242.343 41.3136C238.817 37.7955 234.07 35.7725 229.09 35.6657C224.11 35.559 219.281 37.3766 215.607 40.7404C212.729 38.0856 209.106 36.3757 205.227 35.8408C204.337 35.7179 203.44 35.6562 202.542 35.6563C199.058 35.6614 195.641 36.6069 192.651 38.3931C189.661 40.1792 187.208 42.7396 185.552 45.8041C183.896 48.8685 183.099 52.3231 183.243 55.8033C183.388 59.2835 184.47 62.66 186.374 65.5764C187.1 66.6844 187.938 67.7146 188.875 68.6504L215.627 95.418L221.084 89.9804L194.313 63.2129C193.361 62.2623 192.582 61.1529 192.012 59.9347C191.281 58.3686 190.906 56.66 190.914 54.9316C190.922 53.2033 191.313 51.4982 192.059 49.9391C192.863 48.2626 194.057 46.8034 195.542 45.6839C197.027 44.5645 198.758 43.8175 200.591 43.5056C202.424 43.1937 204.305 43.326 206.076 43.8914C207.847 44.4568 209.457 45.4389 210.77 46.7551L226.62 62.6083L229.337 59.8915C229.694 59.5348 229.978 59.1111 230.172 58.6445C230.365 58.178 230.465 57.6779 230.465 57.1727C230.465 56.6676 230.365 56.1675 230.172 55.7009C229.978 55.2344 229.694 54.8107 229.337 54.454L221.061 46.178C223.285 44.2571 226.154 43.2491 229.091 43.3563C232.027 43.4635 234.815 44.678 236.893 46.7559C238.972 48.8338 240.187 51.6211 240.295 54.558C240.403 57.4949 239.395 60.3639 237.475 62.5887C237.291 62.8007 237.102 63.0048 236.902 63.2051L232.057 68.0498L226.561 73.5462L221.123 68.1204L205.199 52.1965C204.842 51.8392 204.418 51.5558 203.951 51.3624C203.484 51.169 202.984 51.0695 202.479 51.0695C201.973 51.0695 201.473 51.169 201.006 51.3624C200.539 51.5558 200.115 51.8392 199.758 52.1965C199.401 52.5535 199.117 52.9773 198.924 53.4438C198.731 53.9103 198.631 54.4103 198.631 54.9153C198.631 55.4203 198.731 55.9203 198.924 56.3868C199.117 56.8533 199.401 57.2771 199.758 57.634L226.557 84.4369L242.343 68.6622C244.143 66.8711 245.569 64.7411 246.54 62.3953C247.511 60.0496 248.008 57.5346 248.001 54.9958C248.003 54.091 247.942 53.1872 247.82 52.2908Z" fill="#00CE8B"/>
<path d="M230.687 20.9259C230.689 20.9415 230.689 20.9573 230.687 20.973C229.62 24.1202 227.594 26.8539 224.893 28.79C222.192 30.7261 218.952 31.7673 215.629 31.7673C212.306 31.7673 209.066 30.7261 206.365 28.79C203.664 26.8539 201.638 24.1202 200.571 20.973C200.571 20.973 200.571 20.9416 200.571 20.9259C200.381 20.3491 200.331 19.7355 200.425 19.1356C200.519 18.5358 200.754 17.9668 201.111 17.4757C201.468 16.9845 201.937 16.5852 202.478 16.3107C203.02 16.0361 203.619 15.8942 204.226 15.8966C205.03 15.8958 205.813 16.1468 206.467 16.6144C207.12 17.082 207.611 17.7427 207.869 18.5035C208.339 19.9045 209.178 21.1526 210.299 22.1155C211.419 23.0784 212.779 23.7204 214.235 23.9735C215.691 24.2266 217.188 24.0813 218.568 23.5531C219.948 23.0249 221.159 22.1334 222.074 20.973C222.659 20.2324 223.113 19.3972 223.416 18.5035C223.518 18.1955 223.661 17.9024 223.84 17.632C224.186 17.1044 224.656 16.6702 225.209 16.3675C225.763 16.0649 226.382 15.9031 227.012 15.8966C227.621 15.8911 228.223 16.0307 228.767 16.3039C229.311 16.5771 229.782 16.976 230.141 17.4676C230.5 17.9592 230.737 18.5294 230.832 19.1308C230.927 19.7322 230.878 20.3475 230.687 20.9259Z" fill="#00CE8B"/>
<path d="M227.034 15.8965C226.396 15.8959 225.768 16.0542 225.207 16.3572C224.645 16.6602 224.168 17.0982 223.819 17.6318C223.639 17.9023 223.497 18.1953 223.395 18.5034C223.091 19.3971 222.637 20.2323 222.052 20.9729C221.135 22.1296 219.924 23.0177 218.545 23.5435C217.165 24.0693 215.67 24.2134 214.216 23.9606C212.762 23.7078 211.403 23.0675 210.282 22.107C209.161 21.1466 208.32 19.9017 207.848 18.5034C207.589 17.7425 207.099 17.0819 206.445 16.6143C205.792 16.1467 205.008 15.8956 204.204 15.8965C203.597 15.8941 202.998 16.036 202.457 16.3105C201.915 16.5851 201.447 16.9844 201.09 17.4755C200.733 17.9667 200.497 18.5357 200.404 19.1355C200.31 19.7354 200.36 20.349 200.549 20.9257C200.549 20.9257 200.549 20.9572 200.549 20.9729C201.616 24.12 203.643 26.8538 206.344 28.7899C209.045 30.726 212.284 31.7672 215.608 31.7672C218.931 31.7672 222.17 30.726 224.871 28.7899C227.572 26.8538 229.599 24.12 230.666 20.9729C230.667 20.9572 230.667 20.9414 230.666 20.9257C230.855 20.3509 230.905 19.7394 230.812 19.1413C230.72 18.5433 230.487 17.9757 230.132 17.4851C229.778 16.9944 229.313 16.5947 228.774 16.3186C228.236 16.0425 227.639 15.8978 227.034 15.8965Z" fill="#00CE8B"/>
<path d="M207.412 17.624V26.7205H203.992C202.45 25.0696 201.278 23.1088 200.553 20.9689C200.553 20.9689 200.553 20.9375 200.553 20.9218C200.363 20.3451 200.314 19.7315 200.407 19.1316C200.501 18.5317 200.737 17.9628 201.093 17.4716C201.45 16.9805 201.919 16.5812 202.461 16.3066C203.002 16.0321 203.601 15.8902 204.208 15.8926C204.844 15.8939 205.469 16.0526 206.028 16.3548C206.587 16.6569 207.063 17.093 207.412 17.624Z" fill="#00CE8B"/>
<path d="M231.295 13.3053C230.031 12.4696 228.55 12.0232 227.035 12.0215C225.724 12.0198 224.435 12.3536 223.289 12.9912C222.701 11.4327 221.652 10.0905 220.282 9.14309C218.912 8.19573 217.286 7.68826 215.62 7.68826C213.954 7.68826 212.328 8.19573 210.958 9.14309C209.588 10.0905 208.539 11.4327 207.95 12.9912C206.715 12.3052 205.314 11.9718 203.902 12.0271C202.49 12.0825 201.12 12.5246 199.941 13.3053C200.555 9.58908 202.468 6.21142 205.34 3.77454C208.211 1.33767 211.855 0 215.622 0C219.388 0 223.032 1.33767 225.904 3.77454C228.776 6.21142 230.689 9.58908 231.302 13.3053H231.295Z" fill="#00CE8B"/>
<path d="M230.685 20.9259C230.687 20.9415 230.687 20.9573 230.685 20.973C229.962 23.1136 228.789 25.0746 227.246 26.7246H223.826V17.6241C224.174 17.0964 224.646 16.6626 225.202 16.3613C225.757 16.06 226.378 15.9003 227.01 15.8966C227.619 15.8911 228.22 16.0307 228.764 16.3039C229.309 16.5771 229.78 16.976 230.139 17.4676C230.498 17.9592 230.735 18.5294 230.83 19.1308C230.925 19.7322 230.875 20.3475 230.685 20.9259Z" fill="#00CE8B"/>
<path d="M51.6086 36.0091C51.8638 36.0091 52.0012 36.123 52.0012 36.3546V41.0344C52.011 41.0881 52.0076 41.1434 51.9913 41.1955C51.975 41.2476 51.9464 41.295 51.9078 41.3336C51.8692 41.3722 51.8218 41.4008 51.7697 41.4171C51.7176 41.4334 51.6623 41.4368 51.6086 41.427C49.6087 41.4323 47.6734 40.7189 46.1554 39.4169C44.8179 40.7596 42.8471 41.4296 40.2428 41.427C38.1489 41.427 36.0093 40.719 33.8238 39.303C32.2769 40.719 30.2406 41.427 27.7149 41.427C25.9873 41.3952 24.307 40.8574 22.882 39.8802C22.5208 43.0026 21.3744 45.4263 19.4428 47.1511C17.5112 48.876 14.831 49.7384 11.4023 49.7384C7.76685 49.7384 4.98331 48.8825 3.05171 47.1708C1.12011 45.459 0.153008 42.9006 0.150391 39.4954C0.150391 36.8912 0.718352 33.8629 1.85428 30.4106L5.97659 31.5217C5.25841 33.6157 4.86131 35.8064 4.79879 38.0192C4.82234 40.1131 5.39554 41.6835 6.51838 42.7304C7.64122 43.7774 9.27182 44.3009 11.4102 44.3009C15.7131 44.3009 17.8645 41.8903 17.8645 37.0691V22.5939L22.9684 21.9736V34.847C24.2525 35.5844 25.7006 35.9893 27.181 36.0248C29.6831 36.0248 30.9329 34.6193 30.9303 31.8083L30.895 26.6299L36.0341 25.9742V33.5514C36.0279 34.1868 35.9635 34.8202 35.8418 35.4438C36.9619 35.8253 38.1368 36.0215 39.3202 36.0248C41.8224 36.0248 43.0721 34.6193 43.0695 31.8083L43.0303 22.6096L48.1341 21.9893V33.5514C48.1341 33.944 48.1105 34.4897 48.0595 35.2121C49.1604 35.7617 50.3784 36.0353 51.6086 36.0091Z" fill="#00CE8B"/>
<path d="M59.1068 36.0098C59.3659 36.0098 59.4994 36.1236 59.4994 36.3553V41.0351C59.5091 41.0888 59.5057 41.144 59.4895 41.1961C59.4732 41.2482 59.4445 41.2956 59.4059 41.3342C59.3673 41.3728 59.32 41.4015 59.2679 41.4177C59.2157 41.434 59.1605 41.4374 59.1068 41.4277H51.6081C51.5545 41.4365 51.4997 41.4324 51.448 41.4158C51.3963 41.3992 51.3494 41.3705 51.311 41.3322C51.2726 41.2938 51.2439 41.2468 51.2273 41.1951C51.2107 41.1435 51.2067 41.0886 51.2155 41.0351V36.3553C51.2155 36.1236 51.3451 36.0098 51.6081 36.0098H59.1068Z" fill="#00CE8B"/>
<path d="M66.6077 36.0098C66.8668 36.0098 67.0003 36.1236 67.0003 36.3553V41.0351C67.0091 41.0886 67.005 41.1435 66.9884 41.1951C66.9718 41.2468 66.9432 41.2938 66.9048 41.3322C66.8664 41.3705 66.8194 41.3992 66.7678 41.4158C66.7161 41.4324 66.6612 41.4365 66.6077 41.4277H59.109C59.0553 41.4374 59 41.434 58.9479 41.4177C58.8958 41.4015 58.8484 41.3728 58.8098 41.3342C58.7712 41.2956 58.7426 41.2482 58.7263 41.1961C58.71 41.144 58.7066 41.0888 58.7164 41.0351V36.3553C58.7164 36.1236 58.842 36.0098 59.109 36.0098H66.6077Z" fill="#00CE8B"/>
<path d="M70.6607 36.0098C70.9158 36.0098 71.0533 36.1236 71.0533 36.3553V41.0351C71.063 41.0888 71.0596 41.144 71.0433 41.1961C71.0271 41.2482 70.9984 41.2956 70.9598 41.3342C70.9212 41.3728 70.8738 41.4015 70.8217 41.4177C70.7696 41.434 70.7144 41.4374 70.6607 41.4277H66.6051C66.5514 41.4374 66.4961 41.434 66.444 41.4177C66.3919 41.4015 66.3445 41.3728 66.3059 41.3342C66.2673 41.2956 66.2387 41.2482 66.2224 41.1961C66.2061 41.144 66.2027 41.0888 66.2125 41.0351V36.3553C66.2125 36.1236 66.342 36.0098 66.6051 36.0098H70.6607Z" fill="#00CE8B"/>
<path d="M83.6893 36.3548L83.7286 41.0346C83.7374 41.0882 83.7333 41.1431 83.7167 41.1947C83.7001 41.2464 83.6715 41.2934 83.6331 41.3318C83.5947 41.3701 83.5477 41.3988 83.4961 41.4154C83.4444 41.432 83.3895 41.4361 83.336 41.4272C80.0381 41.4272 77.655 40.6028 76.1867 38.9539C74.4331 40.6028 72.5905 41.4272 70.6589 41.4272C70.6053 41.4361 70.5504 41.432 70.4988 41.4154C70.4471 41.3988 70.4001 41.3701 70.3618 41.3318C70.3234 41.2934 70.2947 41.2464 70.2781 41.1947C70.2615 41.1431 70.2574 41.0882 70.2663 41.0346V36.3548C70.2663 36.1232 70.3958 36.0094 70.6589 36.0094C72.0436 36.0438 73.4011 35.6217 74.5221 34.808C74.471 34.1916 74.4475 33.7166 74.4475 33.3789L74.4082 13.8549L79.512 13.1992L79.5513 31.679C79.5513 33.1761 79.8536 34.2714 80.4582 34.965C81.0628 35.6586 82.0103 36.0067 83.3006 36.0094C83.5597 36.0094 83.6893 36.1232 83.6893 36.3548Z" fill="#00CE8B"/>
<path d="M83.3375 41.4202C83.2838 41.4299 83.2285 41.4265 83.1764 41.4103C83.1243 41.394 83.0769 41.3653 83.0383 41.3267C82.9997 41.2881 82.9711 41.2407 82.9548 41.1886C82.9385 41.1365 82.9351 41.0813 82.9449 41.0276L82.9842 36.3478C82.9842 36.1161 83.1137 36.0023 83.3768 36.0023C85.9051 36.0023 87.168 34.5968 87.1654 31.7858L87.13 22.5871L92.2692 21.9668V33.5289C92.2692 38.7924 89.292 41.4228 83.3375 41.4202ZM87.8642 51.086L84.1031 47.4152L87.7778 43.7012L91.5664 47.4152L87.8642 51.086Z" fill="#00CE8B"/>
<path d="M111.638 36.0098H121.574L120.224 41.4198H103.676V36.0098H107.602C106.644 34.5195 106.122 32.7911 106.094 31.0198C106.074 30.0996 106.254 29.1861 106.621 28.3422C106.989 27.4983 107.535 26.7442 108.222 26.1319C109.627 24.8292 111.485 24.1251 113.401 24.1689C115.104 24.1689 117.347 24.6924 120.13 25.7393L118.736 30.0579C116.854 29.3643 115.347 29.0162 114.213 29.0136C113.227 28.9542 112.257 29.2809 111.508 29.9245C111.176 30.255 110.915 30.6504 110.742 31.086C110.569 31.5217 110.488 31.9883 110.503 32.4567C110.527 33.7264 110.921 34.9615 111.638 36.0098Z" fill="#00CE8B"/>
<path d="M139.822 13.8549L144.926 13.1992V33.3789C144.926 38.7419 141.949 41.422 135.994 41.4194H123.662L122.811 36.0094H130.309L127.023 19.5201L132.088 18.2442L135.068 35.9897H136.033C137.321 35.9897 138.269 35.6416 138.876 34.9454C139.483 34.2492 139.785 33.1538 139.783 31.6593L139.822 13.8549Z" fill="#00CE8B"/>
<path d="M158.646 22.1709C161.198 22.1709 163.292 23.015 164.928 24.7032C166.564 26.3914 167.383 28.6528 167.386 31.4873V40.5172C167.386 46.6496 162.244 49.7158 151.96 49.7158L151.418 45.5032C155.156 45.5032 157.894 45.1171 159.632 44.345C161.375 43.5598 162.254 42.2799 162.282 40.4779C161.052 41.0584 159.715 41.3741 158.356 41.4044C155.676 41.4044 153.51 40.542 151.858 38.8172C150.207 37.0924 149.382 34.7852 149.385 31.8956C149.385 29.0846 150.268 26.7591 152.035 24.9191C152.882 24.0224 153.909 23.3142 155.048 22.8407C156.187 22.3672 157.413 22.139 158.646 22.1709ZM153.986 31.7582C153.986 33.2501 154.424 34.3834 155.301 35.1581C156.178 35.9329 157.364 36.3072 158.858 36.281C160.021 36.2612 161.177 36.0923 162.297 35.7785V31.8524C162.297 30.4626 161.93 29.3673 161.194 28.5664C160.817 28.1658 160.357 27.8514 159.847 27.6447C159.337 27.438 158.788 27.344 158.238 27.3689C157.679 27.3572 157.124 27.4591 156.606 27.6683C156.087 27.8775 155.617 28.1897 155.223 28.586C154.811 29.0021 154.488 29.4983 154.276 30.044C154.063 30.5896 153.964 31.173 153.986 31.7582Z" fill="#00CE8B"/>
<path d="M20.4753 57.7517C20.7855 58.8117 21.1231 60.0013 21.4961 61.3283C21.8691 62.6553 22.2813 64.0294 22.6935 65.4467C23.1058 66.864 23.5494 68.2813 23.9852 69.6985C24.421 71.1158 24.8489 72.4467 25.2612 73.6442C25.5988 72.3355 25.9417 70.9051 26.2898 69.3531C26.6379 67.801 26.9677 66.2031 27.2791 64.5594C27.5906 62.9105 27.8955 61.2668 28.1939 59.6283C28.4923 57.9899 28.771 56.4116 29.0301 54.8936H35.2921C34.3865 59.3771 33.3396 63.926 32.1513 68.5404C30.963 73.1547 29.6858 77.5362 28.3195 81.6846H22.8152C21.9149 79.2113 21.0407 76.6149 20.1927 73.8955C19.3447 71.176 18.5084 68.4501 17.684 65.7176C16.8595 68.4501 16.0337 71.176 15.2066 73.8955C14.3796 76.6149 13.5145 79.2113 12.6115 81.6846H7.11513C5.74626 77.5362 4.47162 73.1547 3.2912 68.5404C2.11078 63.926 1.06384 59.3771 0.150391 54.8936H6.68327C6.94501 56.4116 7.2303 57.9899 7.53914 59.6283C7.84799 61.2668 8.17254 62.9105 8.51279 64.5594C8.84781 66.2083 9.19068 67.8062 9.54141 69.3531C9.89213 70.8999 10.2481 72.3303 10.6093 73.6442C11.0726 72.38 11.524 71.0399 11.9638 69.624C12.4035 68.208 12.8301 66.7894 13.2436 65.3681C13.6572 63.9495 14.038 62.5846 14.3861 61.2733C14.7316 59.9581 15.0496 58.7842 15.3323 57.7399L20.4753 57.7517Z" fill="#00CE8B"/>
<path d="M44.9572 60.8099C46.3966 60.7737 47.8323 60.9699 49.2091 61.3909C50.2386 61.7152 51.1738 62.2852 51.9338 63.0516C52.6274 63.7953 53.1264 64.6989 53.3864 65.6821C53.6806 66.8057 53.8232 67.9637 53.8104 69.1252V81.1074C52.9859 81.288 51.8395 81.5013 50.3712 81.7473C48.6054 82.0118 46.8212 82.1339 45.0358 82.1124C43.8345 82.1252 42.6353 82.008 41.4592 81.763C40.4779 81.5656 39.5444 81.1788 38.711 80.6244C37.9444 80.1056 37.3304 79.3913 36.9325 78.5555C36.49 77.5692 36.2779 76.4951 36.3122 75.4146C36.2798 74.3641 36.5263 73.3237 37.0267 72.3995C37.4892 71.5937 38.1483 70.9184 38.9426 70.4365C39.7909 69.9277 40.7206 69.5691 41.6908 69.3764C42.7454 69.1539 43.8205 69.0434 44.8984 69.0466C45.5631 69.0425 46.2275 69.0739 46.8888 69.1409C47.3658 69.188 47.8383 69.272 48.3022 69.3921V68.8543C48.3214 68.4217 48.2523 67.9897 48.0991 67.5847C47.9459 67.1797 47.7117 66.8102 47.411 66.4987C46.8169 65.9071 45.7869 65.6101 44.3212 65.6075C43.3501 65.608 42.3804 65.6802 41.4199 65.8234C40.5774 65.9381 39.7487 66.138 38.9465 66.4201L38.2124 61.7835C38.5461 61.6775 38.9662 61.5676 39.4687 61.4538C39.9712 61.3399 40.5169 61.2339 41.1098 61.1436C41.7026 61.0533 42.3268 60.9748 42.9864 60.912C43.646 60.8491 44.2859 60.8099 44.9572 60.8099ZM45.4205 77.6682C45.9859 77.6682 46.5277 77.6682 47.0459 77.6289C47.46 77.6133 47.8729 77.5739 48.2826 77.5111V73.1415C47.9373 73.0717 47.5888 73.0193 47.2383 72.9844C46.3072 72.8722 45.3661 72.8722 44.4351 72.9844C43.9991 73.0387 43.5748 73.1634 43.1788 73.3535C42.835 73.5188 42.5411 73.7721 42.3268 74.0877C42.1085 74.4405 42.0018 74.851 42.0206 75.2655C42.0206 76.1684 42.3229 76.794 42.9275 77.1421C43.7002 77.5265 44.5585 77.7063 45.4205 77.6642V77.6682Z" fill="#00CE8B"/>
<path d="M67.1472 82.0689C65.7684 82.0868 64.3943 81.9043 63.068 81.5272C62.1432 81.2608 61.2953 80.7776 60.5946 80.1177C59.9886 79.5105 59.5609 78.7487 59.3579 77.9152C59.1274 76.959 59.0166 75.9778 59.0282 74.9943V52.616L64.7915 51.6855V73.84C64.7862 74.3058 64.8243 74.7711 64.9054 75.2298C64.9695 75.6078 65.1215 75.9656 65.349 76.2741C65.6005 76.5839 65.9278 76.8232 66.2991 76.969C66.8296 77.1763 67.3908 77.2944 67.9598 77.3185L67.1472 82.0689Z" fill="#00CE8B"/>
<path d="M79.133 60.8109C80.5723 60.7747 82.0081 60.9709 83.3849 61.3919C84.4144 61.7162 85.3495 62.2862 86.1095 63.0526C86.8034 63.7955 87.3013 64.6995 87.5582 65.683C87.8558 66.8061 87.9998 67.9644 87.9862 69.1261V81.1083C87.1617 81.2889 86.014 81.5023 84.5431 81.7483C82.7786 82.0129 80.9956 82.135 79.2116 82.1134C78.0102 82.1262 76.8111 82.009 75.635 81.764C74.6536 81.5665 73.7202 81.1798 72.8867 80.6254C72.1201 80.1066 71.5061 79.3923 71.1083 78.5564C70.6658 77.5701 70.4537 76.4961 70.488 75.4156C70.4555 74.3651 70.7021 73.3247 71.2025 72.4005C71.665 71.5947 72.3241 70.9193 73.1184 70.4374C73.9667 69.9287 74.8964 69.5701 75.8666 69.3774C76.9212 69.1549 77.9963 69.0444 79.0741 69.0476C79.7388 69.0436 80.4033 69.0751 81.0646 69.1418C81.5415 69.189 82.0141 69.273 82.478 69.3931V68.8553C82.4972 68.4227 82.4281 67.9907 82.2749 67.5857C82.1217 67.1807 81.8875 66.8112 81.5868 66.4996C80.994 65.9068 79.9653 65.6084 78.4931 65.6084C77.5233 65.6092 76.5549 65.6813 75.5957 65.8244C74.7532 65.9391 73.9244 66.139 73.1223 66.4211L72.3881 61.7845C72.7219 61.6785 73.1419 61.5686 73.6445 61.4547C74.147 61.3409 74.6927 61.2349 75.2855 61.1446C75.8784 61.0543 76.5026 60.9758 77.1622 60.9129C77.8217 60.8501 78.4617 60.8109 79.133 60.8109ZM79.5963 77.6692C80.1616 77.6692 80.7034 77.6692 81.2217 77.6299C81.6358 77.6143 82.0487 77.5749 82.4584 77.5121V73.1424C82.1131 73.0726 81.7646 73.0202 81.414 72.9854C80.483 72.8732 79.5419 72.8732 78.6109 72.9854C78.1748 73.0392 77.7504 73.1638 77.3545 73.3545C77.0108 73.5198 76.7169 73.7731 76.5026 74.0886C76.2829 74.441 76.1748 74.8516 76.1924 75.2664C76.1924 76.1694 76.4987 76.7936 77.1033 77.1431C77.876 77.5275 78.7343 77.7073 79.5963 77.6652V77.6692Z" fill="#00CE8B"/>
<path d="M101.634 54.583C105.626 54.583 108.692 55.2858 110.833 56.6913C112.974 58.0968 114.044 60.3961 114.044 63.5893C114.044 66.8112 112.962 69.138 110.798 70.5697C108.633 72.0014 105.539 72.7159 101.516 72.7133H99.6241V81.6842H93.5938V55.2779C94.9728 55.014 96.3664 54.8331 97.7671 54.7361C99.2354 54.6341 100.524 54.583 101.634 54.583ZM102.027 59.7261C101.591 59.7261 101.159 59.7261 100.731 59.7653C100.303 59.8046 99.946 59.8164 99.6319 59.8399V67.5742H101.524C103.618 67.5742 105.189 67.2902 106.235 66.7222C107.292 66.1569 107.806 65.0969 107.806 63.5539C107.834 62.9117 107.699 62.2728 107.413 61.6969C107.143 61.2055 106.742 60.7981 106.255 60.5191C105.686 60.2006 105.063 59.9903 104.418 59.8988C103.624 59.7771 102.822 59.7194 102.019 59.7261H102.027Z" fill="#00CE8B"/>
<path d="M126.222 82.0689C124.843 82.0871 123.469 81.9046 122.142 81.5272C121.216 81.2608 120.367 80.7776 119.665 80.1177C119.059 79.5105 118.631 78.7487 118.428 77.9152C118.199 76.9588 118.09 75.9777 118.103 74.9943V52.616L123.862 51.6855V73.84C123.859 74.3057 123.897 74.7708 123.976 75.2298C124.04 75.6087 124.193 75.9668 124.423 76.2741C124.673 76.5846 124.999 76.8242 125.37 76.969C125.9 77.1763 126.461 77.2944 127.03 77.3185L126.222 82.0689Z" fill="#00CE8B"/>
<path d="M147.677 80.9895C146.431 81.3271 145.166 81.5893 143.888 81.7747C142.277 82.0263 140.648 82.1497 139.016 82.1438C137.546 82.1887 136.08 81.9528 134.698 81.4489C133.633 81.0443 132.694 80.3674 131.973 79.4859C131.281 78.6055 130.793 77.5824 130.544 76.4903C130.247 75.2364 130.103 73.951 130.116 72.6625V61.3477H135.875V71.9793C135.875 73.835 136.12 75.1751 136.61 75.9996C137.099 76.824 138.015 77.2363 139.358 77.2363C139.75 77.2363 140.206 77.2166 140.669 77.1813C141.132 77.146 141.545 77.0949 141.906 77.0439V61.3398H147.669L147.677 80.9895Z" fill="#00CE8B"/>
<path d="M158.926 77.5463C159.686 77.5933 160.449 77.4879 161.168 77.2361C161.389 77.13 161.571 76.9575 161.689 76.7429C161.807 76.5283 161.856 76.2821 161.827 76.0387C161.827 75.5754 161.541 75.171 160.975 74.8216C160.149 74.3522 159.281 73.958 158.384 73.6438C157.481 73.3062 156.665 72.9607 155.93 72.5995C155.241 72.2688 154.607 71.8315 154.054 71.3039C153.534 70.794 153.127 70.1817 152.856 69.5058C152.555 68.7033 152.411 67.8502 152.432 66.9932C152.398 66.1243 152.574 65.26 152.943 64.4729C153.313 63.6859 153.866 62.9991 154.556 62.4704C155.975 61.3633 157.921 60.8084 160.394 60.8058C161.588 60.8017 162.779 60.9122 163.951 61.1356C164.872 61.2987 165.778 61.5377 166.66 61.8501L165.655 66.3336C164.938 66.0897 164.208 65.884 163.468 65.7172C162.599 65.5278 161.712 65.437 160.822 65.4463C159.016 65.4463 158.113 65.9489 158.113 66.9539C158.109 67.1666 158.15 67.3777 158.231 67.5742C158.337 67.7862 158.496 67.9664 158.694 68.0964C158.995 68.3016 159.311 68.4827 159.64 68.6382C160.033 68.8345 160.551 69.0308 161.168 69.282C162.247 69.6665 163.296 70.1284 164.309 70.664C165.04 71.043 165.703 71.5405 166.272 72.1362C166.734 72.6384 167.077 73.2382 167.277 73.8912C167.481 74.6192 167.578 75.373 167.567 76.129C167.567 78.1339 166.813 79.6519 165.306 80.6832C163.798 81.7144 161.665 82.2287 158.906 82.2261C156.516 82.2764 154.139 81.8562 151.91 80.9894L152.876 76.3096C153.853 76.6976 154.862 77.001 155.891 77.2165C156.888 77.432 157.906 77.5425 158.926 77.5463Z" fill="#00CE8B"/>
</svg>
