<svg width="48" height="49" viewBox="0 0 48 49" fill="none" xmlns="http://www.w3.org/2000/svg">
<rect y="0.164062" width="48" height="48" rx="24" fill="#C2C2C2"/>
<path d="M37.3242 35.4887C35.7492 35.4512 34.2117 35.4512 32.6367 35.4887C32.2992 35.4887 32.2242 35.4137 32.2242 35.0762C32.2242 32.3012 32.2242 29.4887 32.2242 26.7137C32.2242 26.0762 32.1867 25.4387 31.9992 24.8387C31.4367 22.8887 29.1867 22.1762 27.5742 23.4887C26.7117 24.1637 26.3742 25.1012 26.3742 26.2262C26.3742 28.8512 26.3742 31.4762 26.3742 34.1012C26.3742 34.4387 26.3367 34.7762 26.3742 35.1512C26.4117 35.4512 26.2617 35.5262 25.9992 35.4887C24.3867 35.4887 22.8117 35.4887 21.1992 35.4887C20.8992 35.4887 20.8242 35.4137 20.8242 35.1137C20.8617 32.7512 20.8617 30.3887 20.8617 27.9887C20.8617 25.0637 20.8617 22.1387 20.8242 19.2512C20.8242 18.9137 20.8992 18.8387 21.1992 18.8387C22.8117 18.8387 24.3867 18.8387 25.9992 18.8387C26.2992 18.8387 26.3742 18.9137 26.3742 19.2137C26.3742 19.8137 26.3742 20.4137 26.3742 21.1262C26.4867 21.0137 26.5242 20.9762 26.5617 20.9387C28.0242 18.8012 30.0867 18.2012 32.5242 18.5762C35.3367 19.0262 37.1367 20.9762 37.5867 23.9762C37.6992 24.6887 37.7367 25.4012 37.7367 26.1137C37.7367 29.1137 37.7367 32.0762 37.7367 35.0762C37.7367 35.3762 37.6617 35.4887 37.3242 35.4887Z" fill="white"/>
<path d="M17.825 27.1639C17.825 29.7889 17.825 32.4139 17.825 35.0389C17.825 35.3764 17.75 35.4889 17.4125 35.4889C15.8375 35.4514 14.2625 35.4889 12.6875 35.4889C12.3875 35.4889 12.3125 35.4139 12.3125 35.1139C12.3125 29.8264 12.3125 24.5014 12.3125 19.2139C12.3125 18.9514 12.3875 18.8389 12.6875 18.8389C14.3 18.8389 15.9125 18.8389 17.525 18.8389C17.8625 18.8389 17.9 18.9514 17.9 19.2514C17.825 21.8764 17.825 24.5014 17.825 27.1639Z" fill="white"/>
<path d="M18.0874 14.4886C17.7124 15.9886 16.1749 16.8511 14.4124 16.5511C12.5374 16.2511 11.4874 14.4136 12.1624 12.6136C12.6124 11.4886 13.6999 10.8136 15.0874 10.8511C17.1874 10.8136 18.5749 12.5011 18.0874 14.4886Z" fill="white"/>
</svg>
