<svg width="28" height="24" viewBox="0 0 28 24" fill="none" xmlns="http://www.w3.org/2000/svg">
<path d="M20.666 0.666992H7.33268C3.33268 0.666992 0.666016 2.66699 0.666016 7.33366V16.667C0.666016 21.3337 3.33268 23.3337 7.33268 23.3337H20.666C24.666 23.3337 27.3327 21.3337 27.3327 16.667V7.33366C27.3327 2.66699 24.666 0.666992 20.666 0.666992ZM21.2927 8.78699L17.1194 12.1203C16.2393 12.827 15.1193 13.1737 13.9993 13.1737C12.8793 13.1737 11.746 12.827 10.8793 12.1203L6.70602 8.78699C6.27935 8.44033 6.21268 7.80033 6.54602 7.37366C6.89268 6.94699 7.51935 6.86699 7.94602 7.21366L12.1193 10.547C13.1327 11.3603 14.8527 11.3603 15.866 10.547L20.0394 7.21366C20.466 6.86699 21.106 6.93366 21.4394 7.37366C21.786 7.80033 21.7193 8.44033 21.2927 8.78699Z" fill="#4131AB"/>
</svg>
