<svg width="119" height="62" viewBox="0 0 119 62" fill="none" xmlns="http://www.w3.org/2000/svg">
<path d="M103.357 0.469355C100.906 0.466948 98.493 1.07527 96.3361 2.2393C94.1793 3.40333 92.3463 5.08645 91.0031 7.13652C90.314 8.17555 89.7661 9.30159 89.374 10.4851C88.208 13.9187 86.4633 17.1276 84.2153 19.973C80.6933 24.4172 76.0377 27.8292 70.739 29.8494C65.4404 31.8696 59.6949 32.4233 54.108 31.452C48.5212 30.4807 43.2997 28.0205 38.9938 24.3305C34.6879 20.6405 31.4571 15.8573 29.6417 10.4851C28.6483 7.56189 26.7637 5.02353 24.2528 3.22698C21.742 1.43042 18.7311 0.46601 15.6438 0.469355C13.311 0.460074 11.0094 1.00528 8.92872 2.06005C6.84801 3.11482 5.0477 4.64901 3.67623 6.53607C2.30476 8.42313 1.40138 10.6091 1.0405 12.9138C0.679631 15.2185 0.871612 17.5759 1.60063 19.7919C1.60063 19.7919 1.60063 19.9126 1.60063 19.973C5.70068 32.0645 13.4863 42.5676 23.8633 50.0063C34.2403 57.445 46.6873 61.4454 59.4551 61.4454C72.2229 61.4454 84.6698 57.445 95.0469 50.0063C105.424 42.5676 113.209 32.0645 117.309 19.973C117.316 19.9128 117.316 19.852 117.309 19.7919C118.036 17.5832 118.229 15.2338 117.873 12.9361C117.517 10.6385 116.622 8.45776 115.26 6.57271C113.899 4.68766 112.111 3.15184 110.042 2.09099C107.973 1.03013 105.682 0.474403 103.357 0.469355Z" fill="#F2F2F2"/>
</svg>
