<svg width="24" height="24" viewBox="0 0 24 24" fill="none" xmlns="http://www.w3.org/2000/svg">
<path d="M1.16329 17.3606L4.36159 14.1623C5.50384 13.0201 7.44566 13.477 7.90256 14.9619C8.24523 15.99 9.38748 16.5611 10.4155 16.3326C12.7 15.7615 15.7841 12.7916 16.3552 10.3929C16.6979 9.36483 16.0125 8.22259 14.9845 7.87996C13.4996 7.42306 13.0427 5.48124 14.1849 4.33899L17.3832 1.1407C18.297 0.341122 19.6677 0.341122 20.4673 1.1407L22.6376 3.31097C24.8078 5.59546 22.4091 11.6494 17.0405 17.0179C11.672 22.3865 5.61806 24.8995 3.33356 22.615L1.16329 20.4447C0.363676 19.5309 0.363676 18.1602 1.16329 17.3606Z" fill="#4131AB"/>
</svg>
