<svg width="48" height="49" viewBox="0 0 48 49" fill="none" xmlns="http://www.w3.org/2000/svg">
<rect y="0.164062" width="48" height="48" rx="24" fill="#C2C2C2"/>
<path d="M35.7625 18.9766C35.7625 19.2391 35.7625 19.5016 35.7625 19.7266C35.7625 27.4891 29.8375 36.4516 19.0375 36.4516C15.7 36.4516 12.625 35.4766 10 33.8266C10.45 33.8641 10.9375 33.9016 11.3875 33.9016C14.125 33.9016 16.675 32.9641 18.7 31.3891C16.1125 31.3516 13.9375 29.6266 13.225 27.3016C13.6 27.3766 13.9375 27.4141 14.35 27.4141C14.875 27.4141 15.4 27.3391 15.8875 27.1891C13.1875 26.6641 11.1625 24.3016 11.1625 21.4516C11.1625 21.4141 11.1625 21.4141 11.1625 21.3766C11.95 21.8266 12.85 22.0891 13.825 22.1266C12.25 21.0766 11.2 19.2766 11.2 17.2141C11.2 16.1266 11.5 15.1141 11.9875 14.2516C14.875 17.8141 19.225 20.1391 24.1 20.4016C23.9875 19.9891 23.95 19.5016 23.95 19.0516C23.95 15.7891 26.575 13.1641 29.8375 13.1641C31.525 13.1641 33.0625 13.8766 34.1125 15.0016C35.4625 14.7391 36.7 14.2516 37.8625 13.5766C37.4125 14.9641 36.475 16.0891 35.275 16.8391C36.475 16.6891 37.6 16.3891 38.65 15.9016C37.9 17.1016 36.925 18.1516 35.7625 18.9766Z" fill="white"/>
</svg>
