<svg width="97" height="97" viewBox="0 0 97 97" fill="none" xmlns="http://www.w3.org/2000/svg">
<path d="M48.9844 8.2793C71.0644 8.2793 88.9844 26.1993 88.9844 48.2793C88.9844 70.3593 71.0644 88.2793 48.9844 88.2793C26.9044 88.2793 8.98438 70.3593 8.98438 48.2793C8.98438 26.1993 26.9044 8.2793 48.9844 8.2793Z" fill="#FF313B"/>
<path d="M48.9844 8.2793C71.0644 8.2793 88.9844 26.1993 88.9844 48.2793C88.9844 70.3593 71.0644 88.2793 48.9844 88.2793C26.9044 88.2793 8.98438 70.3593 8.98438 48.2793C8.98438 26.1993 26.9044 8.2793 48.9844 8.2793ZM38.3444 55.1993L43.4644 58.1593L48.5844 61.1193C55.1844 64.9193 60.5844 61.7993 60.5844 54.1993V48.2793V42.3593C60.5844 34.7193 55.1844 31.6393 48.5844 35.4393L43.4644 38.3993L38.3444 41.3593C31.7444 45.1593 31.7444 51.3993 38.3444 55.1993Z" fill="white"/>
</svg>
