<svg width="21" height="31" viewBox="0 0 21 31" fill="none" xmlns="http://www.w3.org/2000/svg">
<path d="M20.1128 16.7819C19.992 15.9066 19.6773 15.0694 19.1917 14.3313C18.9654 13.989 18.7054 13.6702 18.4154 13.3798C17.3226 12.2895 15.8514 11.6625 14.308 11.6294C12.7646 11.5963 11.2678 12.1596 10.1293 13.2022C9.23713 12.3794 8.11444 11.8494 6.91217 11.6837C6.63638 11.6456 6.3583 11.6265 6.0799 11.6265C5.00039 11.6281 3.94134 11.9211 3.01456 12.4747C2.08778 13.0282 1.32767 13.8218 0.814486 14.7715C0.301299 15.7212 0.054078 16.7919 0.098927 17.8705C0.143776 18.9491 0.479028 19.9955 1.06929 20.8994C1.29416 21.2428 1.5539 21.5621 1.84436 21.8521L10.1354 30.148L11.8267 28.4628L3.52958 20.1669C3.23463 19.8723 2.99334 19.5285 2.81655 19.1509C2.58994 18.6655 2.47371 18.136 2.47623 17.6003C2.47876 17.0647 2.59997 16.5362 2.83115 16.053C3.08032 15.5334 3.45049 15.0812 3.91059 14.7343C4.37069 14.3873 4.90729 14.1558 5.47536 14.0592C6.04344 13.9625 6.62642 14.0035 7.17537 14.1787C7.72432 14.354 8.22323 14.6583 8.63023 15.0662L13.5423 19.9795L14.3843 19.1375C14.4951 19.027 14.5831 18.8956 14.6431 18.7511C14.7031 18.6065 14.734 18.4515 14.734 18.2949C14.734 18.1384 14.7031 17.9834 14.6431 17.8388C14.5831 17.6942 14.4951 17.5629 14.3843 17.4523L11.8194 14.8874C12.5087 14.2921 13.3978 13.9797 14.308 14.0129C15.2183 14.0461 16.0822 14.4225 16.7263 15.0665C17.3705 15.7105 17.7471 16.5743 17.7805 17.4845C17.814 18.3948 17.5018 19.2839 16.9066 19.9734C16.8494 20.0391 16.791 20.1024 16.729 20.1645L15.2275 21.6659L13.524 23.3694L11.8388 21.6878L6.90365 16.7527C6.79292 16.6419 6.66147 16.5541 6.51679 16.4942C6.37211 16.4342 6.21704 16.4034 6.06044 16.4034C5.90384 16.4034 5.74876 16.4342 5.60409 16.4942C5.45941 16.5541 5.32795 16.6419 5.21722 16.7527C5.10652 16.8633 5.0187 16.9946 4.95879 17.1392C4.89887 17.2838 4.86803 17.4388 4.86803 17.5953C4.86803 17.7518 4.89887 17.9067 4.95879 18.0513C5.0187 18.1959 5.10652 18.3273 5.21722 18.4379L13.5228 26.7447L18.4154 21.8558C18.973 21.3007 19.4151 20.6405 19.7161 19.9135C20.017 19.1865 20.1709 18.4071 20.1688 17.6202C20.1694 17.3398 20.1507 17.0597 20.1128 16.7819Z" fill="#00CE8B"/>
<path d="M13.672 5.50294C13.4743 5.50274 13.2797 5.55182 13.1057 5.64571C12.9317 5.73961 12.7839 5.87538 12.6755 6.04075C12.6199 6.12457 12.5757 6.2154 12.5441 6.31087C12.45 6.58784 12.3093 6.8467 12.128 7.07621C11.8439 7.43472 11.4683 7.70994 11.0409 7.87291C10.6135 8.03587 10.15 8.08053 9.69934 8.00218C9.24866 7.92383 8.82747 7.72538 8.48013 7.42772C8.13279 7.13006 7.87218 6.74422 7.72573 6.31087C7.6456 6.07507 7.49358 5.87031 7.29104 5.72539C7.0885 5.58046 6.84562 5.50267 6.59658 5.50294C6.4084 5.50219 6.22275 5.54617 6.0549 5.63125C5.88706 5.71634 5.74184 5.84009 5.63121 5.99232C5.52058 6.14454 5.4477 6.32087 5.41859 6.50678C5.38948 6.69269 5.40497 6.88285 5.46378 7.06161C5.46378 7.06161 5.46378 7.07135 5.46378 7.07621C5.79451 8.05159 6.42254 8.89883 7.25962 9.49888C8.09669 10.0989 9.10073 10.4216 10.1307 10.4216C11.1606 10.4216 12.1646 10.0989 13.0017 9.49888C13.8388 8.89883 14.4668 8.05159 14.7975 7.07621C14.7981 7.07136 14.7981 7.06646 14.7975 7.06161C14.8561 6.88344 14.8717 6.69393 14.843 6.50858C14.8143 6.32324 14.742 6.14733 14.6322 5.99527C14.5224 5.84321 14.3782 5.71932 14.2113 5.63375C14.0444 5.54817 13.8596 5.50335 13.672 5.50294Z" fill="#00CE8B"/>
<path d="M14.9924 4.69978C14.6008 4.44078 14.1418 4.30243 13.6722 4.30189C13.266 4.30137 12.8664 4.40483 12.5115 4.60244C12.3292 4.11944 12.0041 3.70343 11.5794 3.40982C11.1548 3.11621 10.6508 2.95894 10.1345 2.95894C9.61826 2.95894 9.11426 3.11621 8.68962 3.40982C8.26499 3.70343 7.93987 4.11944 7.75758 4.60244C7.37459 4.38984 6.94057 4.28649 6.50286 4.30365C6.06515 4.32082 5.64056 4.45784 5.27539 4.69978C5.46542 3.54804 6.05833 2.50123 6.94839 1.74599C7.83845 0.990746 8.96782 0.576172 10.1351 0.576172C11.3024 0.576172 12.4318 0.990746 13.3219 1.74599C14.2119 2.50123 14.8048 3.54804 14.9949 4.69978H14.9924Z" fill="#00CE8B"/>
</svg>
