<svg width="33" height="33" viewBox="0 0 33 33" fill="none" xmlns="http://www.w3.org/2000/svg">
<path d="M12.8947 25.2331C12.6414 25.2331 12.388 25.1398 12.188 24.9398L4.09469 16.8465C3.70802 16.4598 3.70802 15.8198 4.09469 15.4331L12.188 7.3398C12.5747 6.95314 13.2147 6.95314 13.6014 7.3398C13.988 7.72647 13.988 8.36647 13.6014 8.75314L6.21469 16.1398L13.6014 23.5265C13.988 23.9131 13.988 24.5531 13.6014 24.9398C13.4147 25.1398 13.148 25.2331 12.8947 25.2331Z" fill="#4131AB"/>
<path d="M27.4673 17.1396H5.02734C4.48068 17.1396 4.02734 16.6863 4.02734 16.1396C4.02734 15.593 4.48068 15.1396 5.02734 15.1396H27.4673C28.014 15.1396 28.4673 15.593 28.4673 16.1396C28.4673 16.6863 28.014 17.1396 27.4673 17.1396Z" fill="#4131AB"/>
</svg>
