<svg width="24" height="25" viewBox="0 0 24 25" fill="none" xmlns="http://www.w3.org/2000/svg">
<g clip-path="url(#clip0_226_8747)">
<path d="M12 24.9409C18.6274 24.9409 24 19.5683 24 12.9409C24 6.3135 18.6274 0.940918 12 0.940918C5.37258 0.940918 0 6.3135 0 12.9409C0 19.5683 5.37258 24.9409 12 24.9409Z" fill="#3D9635"/>
<path d="M3.53237 7.92709C3.49262 8.54733 3.44162 9.64458 3.90737 9.75558C4.47362 9.81408 4.16162 8.67483 4.36562 8.46783C4.40462 8.36733 4.47662 8.36733 4.48187 8.49408V9.46458C4.47399 9.56764 4.50182 9.67026 4.56068 9.75522C4.61955 9.84017 4.70587 9.90227 4.80512 9.93108C4.95512 9.91983 5.05262 9.92508 5.11037 10.0901C5.13537 10.6466 5.15862 11.2031 5.18012 11.7596C5.18012 11.7596 5.52587 11.8758 5.54237 10.8213C5.50783 10.4038 5.49706 9.98461 5.51012 9.56583C5.51012 9.44883 5.64512 9.43833 5.74112 9.50208C5.89112 9.61908 5.95562 9.76158 6.18512 9.70383C6.53612 9.59208 6.74462 9.40383 6.75062 9.09933C6.74199 8.80504 6.68889 8.51375 6.59312 8.23533C6.60812 8.18208 6.52337 8.05009 6.54137 7.99684C6.60362 8.10859 6.69812 8.09734 6.71912 7.99684C6.68505 7.79162 6.57863 7.60538 6.41912 7.47184C6.29462 7.34959 6.11087 7.37584 6.04412 7.63609C6.03712 7.96813 6.1382 8.29346 6.33212 8.56308C6.39193 8.7109 6.41633 8.87066 6.40337 9.02958C6.35675 9.05848 6.30068 9.06798 6.24714 9.05607C6.1936 9.04416 6.14685 9.01177 6.11687 8.96583C6.11687 8.96583 5.83487 8.72733 5.83487 8.68008C5.90314 8.43349 5.89503 8.17198 5.81162 7.93009C5.78051 7.78485 5.71806 7.64817 5.62862 7.52959C5.55962 7.43959 5.46512 7.43959 5.42012 7.52959C5.32091 7.85214 5.3288 8.19814 5.44262 8.51583C5.50487 8.72733 5.60537 8.86008 5.55962 8.86008C5.52062 8.98233 5.44112 8.95008 5.38412 8.81208C5.3156 8.51507 5.28311 8.21087 5.28737 7.90609C5.26112 7.66759 5.23262 7.15609 5.09387 7.02634C5.00912 6.89884 4.88162 6.96259 4.83662 7.08484C4.82582 7.3144 4.83059 7.54442 4.85087 7.77334C4.93389 8.13996 4.99177 8.51182 5.02412 8.88633C5.03612 9.41133 4.75562 9.11133 4.76762 8.84958C4.82753 8.51795 4.82422 8.17799 4.75787 7.84759C4.71212 7.71034 4.65812 7.67809 4.54487 7.70509C4.45487 7.69384 4.22762 7.97509 4.16387 8.44158C4.13051 8.59209 4.10548 8.74432 4.08887 8.89758C4.05587 9.13608 3.91562 9.30558 3.81737 8.86008C3.73037 8.53683 3.67937 7.74184 3.53687 7.92709" fill="white"/>
<path d="M5.072 10.4713C4.57175 10.7525 4.08575 11.0068 3.59375 11.2715C3.6768 11.0062 3.82893 10.7677 4.03453 10.5806C4.24013 10.3935 4.4918 10.2644 4.76375 10.2065C5.06375 10.217 4.98875 10.3393 5.072 10.4713Z" fill="white"/>
<path d="M6.9562 6.96278C6.92357 6.96951 6.89185 6.98008 6.86171 6.99428C6.78519 7.02084 6.72188 7.07592 6.68499 7.14802C6.6481 7.22013 6.64048 7.30369 6.66371 7.38128C6.80621 8.35628 6.89696 9.09878 7.03871 10.0685C7.06346 10.1855 6.97645 10.334 6.8677 10.3235C6.68095 10.1803 6.63445 9.88853 6.31645 9.90428C6.18217 9.93143 6.0596 9.99952 5.96559 10.0992C5.87158 10.1988 5.81074 10.3251 5.79145 10.4608C5.74864 10.6706 5.74864 10.8869 5.79145 11.0968C5.84803 11.1787 5.93131 11.2385 6.02707 11.2659C6.12283 11.2932 6.22512 11.2865 6.31645 11.2468C6.45596 11.183 6.5722 11.0218 6.6217 11.0615C6.65245 11.1253 6.6172 11.6338 5.9632 12.0208C5.55895 12.2218 5.23946 12.275 5.06321 11.9038C4.95821 11.6713 5.07145 10.7908 4.8097 10.9925C4.0312 13.25 6.63145 13.568 6.9232 11.0878C6.94195 11.0188 6.9982 10.9498 7.04095 10.9663C7.06045 10.9768 7.07395 11.003 7.07845 11.0563C7.01845 13.298 5.06771 13.4465 4.73696 12.7468C4.65678 12.5021 4.61726 12.246 4.61996 11.9885C4.61966 11.8993 4.5919 11.8124 4.54046 11.7395C4.46096 11.6765 4.3552 11.8513 4.3312 12.1535C4.30734 12.3325 4.29956 12.5132 4.30796 12.6935C4.41146 14.4748 6.92396 13.7113 7.33421 12.2435C7.41509 11.7807 7.43777 11.3095 7.4017 10.841H7.40996L7.41595 10.8358C7.6702 11.1358 8.01595 10.8725 8.09471 10.772C8.10297 10.757 8.11469 10.7442 8.12888 10.7347C8.14307 10.7251 8.15933 10.719 8.17633 10.717C8.19332 10.7149 8.21056 10.7169 8.22662 10.7229C8.24268 10.7288 8.25711 10.7384 8.2687 10.751C8.31771 10.7903 8.37561 10.8168 8.43731 10.8284C8.49901 10.84 8.56261 10.8362 8.6225 10.8174C8.68238 10.7985 8.73671 10.7653 8.7807 10.7205C8.82468 10.6757 8.85697 10.6208 8.8747 10.5605C8.91883 10.2814 8.94713 9.99991 8.95946 9.71753C8.86087 9.73901 8.76835 9.78233 8.6887 9.84428C8.67814 9.85639 8.67113 9.87119 8.66845 9.88703C8.6587 9.96203 8.6482 10.046 8.6362 10.1255C8.63481 10.1326 8.63306 10.1396 8.63095 10.1465C8.62499 10.156 8.61639 10.1636 8.6062 10.1683C8.59419 10.1764 8.58022 10.1812 8.56574 10.1822C8.55126 10.1831 8.53678 10.1802 8.5238 10.1737C8.51082 10.1672 8.4998 10.1574 8.49187 10.1452C8.48395 10.1331 8.4794 10.119 8.4787 10.1045C8.41946 9.80453 8.17195 9.75428 8.0212 10.2313C7.9177 10.3273 7.73621 10.343 7.71596 10.2103C7.7422 9.88703 7.62521 9.84428 7.3957 9.99278C7.3207 9.35678 7.2457 8.75303 7.1707 8.11778C7.2682 8.11778 7.3537 8.19728 7.44295 8.07503C7.36235 7.69836 7.2253 7.33602 7.03645 7.00028C7.03087 6.9927 7.02486 6.98544 7.01845 6.97853C7.01685 6.97841 7.01531 6.97786 7.01399 6.97693C7.01267 6.97601 7.01162 6.97475 7.01095 6.97328H7.00195C6.99745 6.96803 6.98996 6.96803 6.98921 6.96278C6.97721 6.96278 6.9667 6.95753 6.9562 6.96278ZM6.2572 10.445C6.28773 10.4422 6.31829 10.4501 6.34353 10.4676C6.36876 10.485 6.38706 10.5107 6.3952 10.5403C6.40438 10.5688 6.40657 10.599 6.40161 10.6285C6.39665 10.658 6.38468 10.6859 6.36671 10.7098C6.34646 10.7473 6.28045 10.7315 6.23095 10.7315C6.20597 10.7339 6.18087 10.7285 6.15902 10.7162C6.13717 10.7039 6.11961 10.6851 6.1087 10.6625C6.0907 10.604 6.1402 10.5455 6.1642 10.4983C6.1882 10.451 6.1687 10.4878 6.17245 10.4825C6.19687 10.4627 6.22613 10.4498 6.2572 10.445Z" fill="white"/>
<path d="M8.7055 6.90918C8.64406 6.91518 8.58442 6.93328 8.53 6.96243C8.46694 7.02867 8.42735 7.11378 8.41733 7.20469C8.4073 7.2956 8.42739 7.38729 8.4745 7.46568C8.5735 7.51368 8.6725 7.63068 8.605 7.69068C8.3275 8.02518 7.59925 8.59068 7.5625 8.69268V8.69793V8.70318H7.5685C7.74806 8.73387 7.93138 8.73564 8.1115 8.70843V8.70318C8.43947 8.38973 8.74053 8.04928 9.0115 7.68543C8.97475 7.64868 8.9365 7.62168 8.89975 7.58493C8.89099 7.5779 8.88392 7.569 8.87907 7.55887C8.87421 7.54875 8.87169 7.53766 8.87169 7.52643C8.87169 7.5152 8.87421 7.50411 8.87907 7.49399C8.88392 7.48386 8.89099 7.47496 8.89975 7.46793C8.97044 7.40408 9.01326 7.31504 9.01901 7.21996C9.02476 7.12488 8.99298 7.03133 8.9305 6.95943C8.86172 6.92202 8.78356 6.90534 8.7055 6.91143V6.90918ZM8.671 7.20318C8.71675 7.19793 8.77 7.25118 8.797 7.31418C8.824 7.37718 8.81125 7.45218 8.76625 7.46793C8.72125 7.48368 8.659 7.43118 8.629 7.36218C8.599 7.29318 8.6155 7.21893 8.66275 7.20843C8.66275 7.20843 8.66275 7.20318 8.671 7.20318Z" fill="white"/>
<path d="M3.64438 12.0724C3.51945 12.2924 3.44161 12.5361 3.41578 12.7879C3.38996 13.0396 3.41673 13.294 3.49438 13.5349C3.5284 13.5843 3.57685 13.6219 3.6331 13.6427C3.68935 13.6636 3.75066 13.6665 3.80863 13.6511C3.98188 13.5664 4.05988 13.1689 4.01713 13.0264C3.95938 12.9199 3.91363 12.9041 3.85438 12.9941C3.73363 13.2701 3.68188 13.0789 3.67063 12.9191C3.65661 12.6572 3.66766 12.3945 3.70363 12.1346C3.73438 11.9179 3.70363 11.9809 3.64288 12.0716" fill="white"/>
<path d="M15.5079 11.2776C15.2409 10.6251 14.8689 9.98382 14.7512 9.74007C14.6334 9.49632 13.7402 8.03907 13.6082 7.86957C13.3172 7.48257 14.0792 8.03382 13.5114 7.25982C13.2969 7.05282 13.2864 7.04232 13.1012 6.87282C13.0142 6.79782 12.7899 6.67182 12.7539 6.88332C12.7335 7.037 12.7398 7.19306 12.7727 7.34457C12.8292 7.4851 12.9049 7.61711 12.9977 7.73682C13.9528 9.15699 14.7834 10.6571 15.4802 12.2203C15.6032 12.1573 15.5769 11.3886 15.5042 11.2776" fill="white"/>
<path d="M14.3301 13.4503C14.2753 13.5141 14.4583 13.8051 14.6976 13.7998C15.0943 13.7526 15.4476 13.4998 15.7686 12.8353C15.9023 12.6084 15.9859 12.3555 16.0138 12.0936C16.0539 10.8377 15.9641 9.58103 15.7461 8.34358C15.7322 8.25728 15.7355 8.16909 15.7558 8.08408C15.7813 8.04733 15.8691 8.08408 15.9148 7.99933C15.9846 7.91983 15.7356 7.27333 15.5938 7.02433C15.5436 6.91258 15.5256 6.83908 15.4438 7.03483C15.3424 7.25741 15.2946 7.50068 15.3043 7.74508C15.4941 9.21883 15.5518 10.5201 15.6793 11.9901C15.7005 12.1415 15.6676 12.2956 15.5863 12.4251C15.2492 12.8558 14.8213 13.2069 14.3331 13.4533" fill="white"/>
<path d="M18.8868 15.6041C18.5995 15.7901 18.5995 16.0069 18.8328 16.0121C19.0701 16.0178 19.3048 15.9617 19.5139 15.8493C19.7229 15.7369 19.8992 15.572 20.0253 15.3709C20.1394 15.11 20.2047 14.8304 20.218 14.5459C20.2719 13.1906 20.1996 11.8333 20.002 10.4914C19.9766 10.3657 19.9633 10.2379 19.9623 10.1096C19.9893 10.0406 20.1175 10.1201 20.161 10.0346C20.2315 9.95964 19.8288 9.37238 19.6848 9.12338C19.6368 9.01163 19.6188 8.93738 19.5348 9.13913C19.4401 9.36132 19.4114 9.60609 19.4523 9.84414C19.6655 11.3626 19.7986 12.8912 19.8513 14.4236C19.8412 14.5516 19.8145 14.6776 19.7718 14.7986C19.6627 14.9848 19.532 15.1575 19.3825 15.3131C19.2505 15.4189 18.9745 15.5246 18.8853 15.6041" fill="white"/>
<path d="M19.9131 12.0038C19.9086 11.6288 19.9228 11.304 19.9086 11.0228C19.8943 10.7415 19.7826 9.69225 19.7473 9.47025C19.7121 9.24825 19.6678 8.90325 19.6138 8.6325C19.5824 8.47541 19.5658 8.3157 19.5643 8.1555C19.5853 8.0805 19.6776 8.16075 19.7188 8.07075C19.6716 7.65783 19.5443 7.25809 19.3438 6.894C19.2921 6.783 19.1938 6.819 19.0746 7.0005C18.9606 7.11675 18.9996 7.3815 19.0453 7.6365C19.3575 9.29457 19.5092 10.9788 19.4983 12.666C19.4818 12.7988 19.9176 12.258 19.9131 12.0038Z" fill="white"/>
<path d="M17.812 9.92526C17.6312 9.92001 17.2547 9.53301 17.1452 9.30576C17.1123 9.1953 17.1197 9.07672 17.1662 8.97126C17.233 8.92401 17.3357 8.86551 17.4115 8.92401C17.4115 8.92401 17.491 9.04551 17.476 9.06201C17.5735 9.11451 17.6162 9.08301 17.626 9.03501C17.632 8.96001 17.5952 8.91351 17.5952 8.82876C17.6365 8.59026 17.8757 8.55801 17.9702 8.70651C18.0348 8.83481 18.0691 8.97615 18.0707 9.11976C18.0707 9.18876 17.9725 9.10926 17.9207 9.12501C17.869 9.14076 17.8525 9.21051 17.8457 9.27501C17.8337 9.44976 17.8172 9.72051 17.815 9.92676" fill="white"/>
<path d="M14.4963 12.4219C14.5473 11.9074 14.4798 10.8686 14.4753 10.5671C14.4588 9.85688 14.353 8.48363 14.3058 8.25563C14.2488 7.82138 14.4625 8.30363 14.4318 8.04938C14.3375 7.64253 14.1561 7.26099 13.9 6.93113C13.8205 6.80363 13.825 6.77738 13.6975 6.96263C13.6164 7.24757 13.6221 7.55023 13.714 7.83188C13.8855 8.66384 13.9972 9.50699 14.0485 10.3549C14.1027 11.2479 14.1094 12.1432 14.0688 13.0369C14.2045 13.0369 14.4213 12.7879 14.4963 12.4219Z" fill="white"/>
<path d="M20.5295 11.6009C20.2152 11.0009 19.7352 10.3019 19.6085 10.0634C19.4817 9.82486 18.3987 8.04436 18.2637 7.88836C17.8677 7.42711 18.4452 7.81336 18.1887 7.44811C18.0508 7.26285 17.8939 7.09244 17.7207 6.93961C17.6285 6.87586 17.5707 6.74311 17.5407 6.96061C17.5244 7.1544 17.5196 7.349 17.5265 7.54336C17.5473 7.67509 17.6015 7.79929 17.684 7.90411C18.7533 9.37135 19.7031 10.9221 20.5242 12.5414C20.6442 12.4784 20.603 11.7096 20.5287 11.6039" fill="white"/>
<path d="M16.6952 17.2774C16.6394 17.2942 16.5895 17.3263 16.5511 17.3701C16.5127 17.4139 16.4874 17.4676 16.4781 17.5251C16.4688 17.5826 16.4759 17.6415 16.4985 17.6952C16.5211 17.7489 16.5583 17.7951 16.6059 17.8286C13.6472 17.8286 9.10594 17.7754 8.13619 17.7754C7.58944 17.7754 5.86819 17.7004 5.83594 17.7004C6.00709 17.9614 6.24797 18.1693 6.53126 18.3004C6.81455 18.4315 7.12891 18.4806 7.43869 18.4421C8.75419 18.4421 14.8404 18.4264 16.5707 18.4264C16.5269 18.5443 16.514 18.6714 16.5331 18.7957C16.5523 18.92 16.6029 19.0374 16.6802 19.1366L16.6869 19.1419C16.6879 19.1438 16.6894 19.1453 16.6913 19.1463C16.6932 19.1472 16.6954 19.1475 16.6974 19.1471H16.7027C16.8182 19.1794 16.8684 19.0834 16.9089 19.0204C17.3511 19.0451 17.7944 19.0434 18.2364 19.0151C18.3017 19.1209 18.3677 19.2214 18.4899 19.2056C18.7059 19.1524 18.8754 19.1261 18.8829 18.6334C18.8829 18.6334 18.8604 17.7956 18.3699 17.8489C18.2537 17.8646 17.9289 17.9021 17.9289 17.9021C17.5539 17.8541 17.2742 17.8489 16.8512 17.8271C16.8909 17.7739 16.9584 17.5459 16.8744 17.4664C16.8605 17.4547 16.8444 17.4459 16.827 17.4405C16.8096 17.435 16.7913 17.4332 16.7732 17.4349H16.7649C16.7649 17.4349 16.7582 17.4296 16.7559 17.4244V17.4191C16.7366 17.3726 16.7208 17.3248 16.7087 17.2759H16.6989L16.6952 17.2774ZM16.8999 18.4759C17.3289 18.4969 17.7339 18.4811 18.1674 18.5021C18.1938 18.5379 18.2071 18.5816 18.2051 18.626C18.203 18.6704 18.1858 18.7127 18.1562 18.7459C18.1562 18.7511 18.1509 18.7511 18.1502 18.7511H18.1382C17.9979 18.7459 17.9177 18.7459 17.7774 18.7406C17.7774 18.7301 17.7729 18.7249 17.7729 18.7144C17.7384 18.6026 17.4999 18.6139 17.4414 18.7039V18.7091V18.7196V18.7301C17.44 18.7353 17.44 18.7407 17.4414 18.7459C17.2575 18.7576 17.0728 18.7505 16.8902 18.7249C16.8369 18.6499 16.8429 18.5126 16.9082 18.4759" fill="white"/>
<path d="M9.20858 7.41892C8.92133 8.34067 9.37508 9.35842 9.68858 9.26317C9.91358 9.36367 10.0583 8.87617 10.1528 8.34592C10.2173 8.19592 10.2646 8.18167 10.2976 8.25592C10.2878 8.96617 10.3418 9.12517 10.5038 9.33742C10.5473 9.38406 10.5997 9.42145 10.658 9.44734C10.7162 9.47322 10.7791 9.48707 10.8428 9.48805C10.9066 9.48903 10.9699 9.47712 11.0289 9.45304C11.0879 9.42896 11.1415 9.3932 11.1863 9.34792C11.2096 9.32692 11.4676 9.03517 11.4676 9.03517C11.4812 9.01744 11.4986 9.00291 11.5184 8.99258C11.5383 8.98226 11.5602 8.97639 11.5825 8.97539C11.6049 8.97439 11.6272 8.97828 11.6479 8.98679C11.6686 8.9953 11.6872 9.00823 11.7023 9.02467C11.7856 9.10942 11.7773 9.26317 11.9588 9.36367C12.0547 9.40112 12.1597 9.40855 12.2599 9.38497C12.3601 9.3614 12.4507 9.30794 12.5198 9.23167C12.6233 9.03517 12.6458 8.96617 12.6931 8.89192C12.7681 8.78092 12.8926 8.82892 12.8926 8.86567C12.8813 8.92942 12.8108 8.98792 12.8566 9.09892C12.9466 9.17392 12.9668 9.12517 13.0193 9.10942C13.2023 9.00892 13.3403 8.56342 13.3403 8.56342C13.3463 8.39392 13.2653 8.40967 13.2083 8.44717C13.1401 8.49442 13.1333 8.51092 13.0643 8.55817C12.9758 8.56867 12.8018 8.63767 12.7178 8.48917C12.6286 8.30917 12.6286 8.05492 12.5596 7.87492C12.5596 7.86442 12.4448 7.59367 12.5528 7.57492C12.6061 7.58542 12.7216 7.62217 12.7411 7.51117C12.7996 7.40542 12.6188 7.09791 12.4966 6.94941C12.4747 6.91743 12.4457 6.89101 12.4118 6.87226C12.3779 6.8535 12.3401 6.84294 12.3014 6.84141C12.2627 6.83988 12.2242 6.84742 12.1889 6.86344C12.1537 6.87946 12.1226 6.90351 12.0983 6.93366C12.0273 7.02827 11.9898 7.14387 11.9918 7.26217C11.9759 7.33897 11.9762 7.41824 11.9926 7.49493C12.009 7.57163 12.0412 7.64407 12.0871 7.70767C12.258 7.97744 12.3369 8.29529 12.3121 8.61367C12.2831 8.66562 12.2406 8.70878 12.1891 8.73861C12.1376 8.76844 12.0791 8.78383 12.0196 8.78317C11.9446 8.76217 11.8171 8.72467 11.7496 8.17342C11.7655 7.73931 11.7165 7.30527 11.6041 6.88566C11.5463 6.71616 11.5058 6.55191 11.3656 6.84366C11.3045 6.93548 11.2653 7.04009 11.251 7.14945C11.2367 7.2588 11.2477 7.36997 11.2831 7.47442C11.3909 7.78929 11.4218 8.12542 11.3731 8.45467C11.3253 8.54953 11.2691 8.6399 11.2051 8.72467C11.1645 8.77778 11.1049 8.81303 11.0389 8.82297C10.9728 8.8329 10.9055 8.81675 10.8511 8.77792C10.7904 8.74367 10.739 8.69506 10.7015 8.63635C10.664 8.57764 10.6414 8.51062 10.6358 8.44117C10.6608 8.07865 10.649 7.71455 10.6006 7.35441C10.5151 7.15266 10.3703 7.22691 10.3103 7.28541C10.0288 7.64001 9.84543 8.06237 9.77858 8.51017C9.69608 8.80642 9.60833 8.72167 9.54758 8.60017C9.39758 8.44642 9.38858 7.21641 9.20858 7.41816" fill="white"/>
<path d="M10.1795 9.33207C10.1795 9.33732 10.1757 9.33732 10.1712 9.33732V9.34257C10.1525 9.35307 10.1277 9.39057 10.0782 9.43257C10.0363 9.48889 10.0063 9.55325 9.99034 9.62164C9.97434 9.69002 9.9726 9.76097 9.98522 9.83007C9.98897 9.85707 10.1427 10.3393 10.2762 10.6836C10.3881 11.0561 10.4258 11.447 10.3872 11.8341C10.1728 12.3313 9.81338 12.7524 9.35597 13.0423C9.28923 13.0761 9.2155 13.0936 9.14072 13.0936C9.06594 13.0936 8.9922 13.0761 8.92547 13.0423V13.0371C8.88417 13.0048 8.85182 12.9625 8.83147 12.9142C8.81113 12.8659 8.80347 12.8132 8.80922 12.7611C9.27015 12.4773 9.63235 12.0582 9.84647 11.5611C9.9476 11.2813 9.95732 10.9767 9.87422 10.6911C9.84826 10.5463 9.78781 10.41 9.69797 10.2936C9.69797 10.2936 9.69797 10.2936 9.69797 10.2883C9.75572 10.2568 9.90497 10.3836 9.92972 10.3041C9.88634 10.076 9.78276 9.86365 9.62972 9.68907C9.60985 9.6599 9.58363 9.6356 9.55304 9.61799C9.52245 9.60039 9.48827 9.58993 9.45307 9.58741C9.41786 9.58488 9.38254 9.59036 9.34975 9.60341C9.31696 9.61647 9.28755 9.63678 9.26372 9.66282C9.13997 9.74232 9.11372 10.0236 9.17147 10.2726C9.23897 10.4526 9.42122 10.4848 9.55097 10.8553V10.8606C9.57571 10.9894 9.56797 11.1224 9.52847 11.2476C9.30836 11.5539 9.04716 11.8284 8.75222 12.0636L8.74697 12.0688V12.0748H8.73872C8.73872 12.0688 8.73872 12.0688 8.73872 12.0688C8.7416 12.0284 8.7416 11.9878 8.73872 11.9473C8.73872 11.8416 8.77697 11.5866 8.77397 11.5393V11.5341C8.55272 11.6983 8.47397 12.1963 8.43572 12.3448C7.87187 12.6962 7.34429 13.1027 6.86072 13.5583C6.66722 13.8928 8.18897 13.1661 8.36072 13.0813C8.36072 13.0813 8.36522 13.0813 8.36747 13.0866C8.39964 13.196 8.44524 13.3011 8.50322 13.3993C8.59204 13.5282 8.7187 13.6262 8.86569 13.68C9.01268 13.7337 9.17273 13.7405 9.32372 13.6993C9.82336 13.4576 10.2375 13.0693 10.511 12.5863C10.556 12.5113 10.6287 12.4536 10.694 12.5113C10.8512 12.819 11.0927 13.0757 11.3903 13.2514C11.6879 13.4271 12.0293 13.5145 12.3747 13.5036C12.5645 13.2433 12.4752 13.1113 12.3972 13.0633C12.3725 13.0423 11.987 12.8728 11.9285 12.7033C11.8917 12.5496 11.981 12.4116 12.1662 12.3051C12.694 12.2503 13.2143 12.1384 13.718 11.9713C13.7361 11.7623 13.7938 11.5587 13.8882 11.3713C13.9077 11.3288 13.938 11.2921 13.976 11.2648C13.976 11.2648 13.976 11.2648 13.976 11.2596V11.2543C13.9766 11.2508 13.9766 11.2473 13.976 11.2438L13.8882 11.1853L12.2022 11.1748C12.1854 11.1682 12.1695 11.1594 12.155 11.1486V11.1433V11.1381V11.1328V11.1276V11.1223C12.155 11.1171 12.155 11.1171 12.155 11.1171C12.1682 11.0991 12.1869 11.086 12.2082 11.0796C12.6132 11.0211 13.3272 10.8891 13.3737 10.1098C13.3861 10.022 13.3803 9.93266 13.3567 9.84721C13.3331 9.76175 13.2923 9.68205 13.2367 9.61301C13.1811 9.54398 13.1119 9.48709 13.0334 9.44586C12.955 9.40463 12.8689 9.37994 12.7805 9.37332C12.6117 9.40952 12.4635 9.50979 12.3671 9.65303C12.2707 9.79627 12.2337 9.97131 12.2637 10.1413C12.2495 10.2426 12.2967 10.4488 12.2022 10.4698C11.5812 10.5388 10.9047 10.9738 10.88 11.2866H10.8717L10.8672 11.2918H10.859L10.8515 11.2866C10.8197 11.267 10.7948 11.2382 10.7801 11.204C10.7653 11.1697 10.7614 11.1318 10.769 11.0953C10.7406 10.5311 10.5952 9.97893 10.3422 9.47382C10.2567 9.37332 10.2177 9.33582 10.1922 9.33057H10.1817L10.1795 9.33207ZM12.647 10.0251C12.694 10.0202 12.7412 10.0334 12.779 10.0618C12.8087 10.0768 12.8339 10.0995 12.8521 10.1274C12.8703 10.1553 12.8808 10.1875 12.8825 10.2208V10.2313V10.2366V10.2411C12.8825 10.2411 12.8765 10.2463 12.872 10.2516C12.839 10.2883 12.767 10.2831 12.695 10.2351C12.6672 10.2198 12.6434 10.1984 12.6255 10.1723C12.6075 10.1463 12.5959 10.1164 12.5915 10.0851V10.0791C12.5915 10.0686 12.596 10.0633 12.599 10.0633L12.6035 10.0528C12.6035 10.0476 12.6035 10.0476 12.6117 10.0423C12.6169 10.0371 12.6231 10.033 12.6299 10.0303C12.6368 10.0276 12.6441 10.0263 12.6515 10.0266L12.647 10.0251ZM11.0832 11.6271H11.0997C11.3321 11.6763 11.5682 11.7064 11.8055 11.7171C12.0012 11.7328 12.098 11.9023 11.915 11.9766C11.732 12.0508 11.5602 12.0988 11.5602 12.3958C11.585 12.4787 11.585 12.5671 11.5602 12.6501C11.5602 12.6553 11.5557 12.6606 11.5527 12.6606V12.6658V12.6711H11.5475L11.5392 12.6763C11.5388 12.6778 11.5379 12.6791 11.5367 12.68C11.5355 12.6809 11.534 12.6815 11.5325 12.6816C11.4875 12.6868 11.4252 12.6343 11.3772 12.6126C11.2481 12.5238 11.1395 12.4083 11.0588 12.2741C10.9781 12.1398 10.9271 11.9897 10.9092 11.8341C10.907 11.8089 10.9097 11.7836 10.9174 11.7595C10.925 11.7354 10.9373 11.7131 10.9537 11.6938C10.97 11.6746 10.99 11.6588 11.0125 11.6473C11.035 11.6358 11.0595 11.629 11.0847 11.6271" fill="white"/>
<path d="M5.6591 7.42935C5.85485 7.52985 6.2186 7.48785 6.2036 7.1376C6.2036 7.1061 6.1976 7.00035 6.19535 6.97335C6.1571 6.8676 6.04535 6.8886 6.02285 7.00035C6.0146 7.03185 6.03485 7.09035 6.00785 7.11135C5.98085 7.13235 5.9291 7.1166 5.93285 7.02135C5.93094 6.99061 5.91998 6.96112 5.90135 6.9366C5.89552 6.93009 5.8881 6.92522 5.87981 6.92246C5.87153 6.91969 5.86266 6.91914 5.8541 6.92085C5.82785 6.9261 5.82785 6.93135 5.81585 6.9576C5.80653 6.9831 5.80147 7.00996 5.80085 7.0371C5.79635 7.07385 5.78285 7.0851 5.76035 7.09035C5.73785 7.0956 5.7431 7.0956 5.7206 7.07985C5.7101 7.06335 5.6921 7.0581 5.6921 7.03185C5.69161 7.00339 5.6886 6.97503 5.6831 6.9471C5.67093 6.93133 5.65372 6.92021 5.63435 6.9156C5.5271 6.9156 5.52035 7.05285 5.5271 7.1061C5.5181 7.1166 5.51435 7.36035 5.65835 7.42935" fill="white"/>
<path d="M11.3515 10.1429C11.5457 10.2442 12.0077 10.1857 11.8967 9.84291C11.8955 9.78799 11.8915 9.73317 11.8847 9.67866C11.8465 9.57291 11.7392 9.59916 11.713 9.70566C11.707 9.74241 11.728 9.80091 11.7002 9.82191C11.6725 9.84291 11.6207 9.82191 11.6252 9.72666C11.6233 9.69753 11.6123 9.66974 11.5937 9.64716C11.5881 9.64128 11.5812 9.6368 11.5735 9.63406C11.5658 9.63133 11.5576 9.63042 11.5495 9.63141C11.524 9.63666 11.524 9.64191 11.509 9.66816C11.5008 9.69392 11.496 9.72065 11.4947 9.74766C11.4947 9.78516 11.479 9.79566 11.4557 9.80091C11.4325 9.80616 11.4392 9.80616 11.4167 9.79041C11.3942 9.77466 11.3882 9.76941 11.3882 9.74241C11.3892 9.71362 11.3849 9.68489 11.3755 9.65766C11.3645 9.64137 11.3475 9.63006 11.3282 9.62616C11.2232 9.62616 11.2172 9.76341 11.221 9.81666C11.215 9.82191 11.2105 10.0657 11.3545 10.1399" fill="white"/>
<path d="M14.674 9.0192C14.8675 9.1197 15.2328 9.07245 15.2178 8.7192C15.2178 8.69295 15.2118 8.5872 15.2095 8.55495C15.1683 8.45445 15.0595 8.47545 15.037 8.5872C15.028 8.6187 15.0483 8.6772 15.0198 8.69295C15.0055 8.71395 14.9448 8.70345 14.9448 8.60295C14.941 8.57263 14.9302 8.54362 14.9133 8.5182C14.8997 8.51289 14.885 8.51109 14.8705 8.51295C14.845 8.51295 14.845 8.5182 14.8293 8.54445C14.8206 8.57192 14.8155 8.60041 14.8143 8.6292C14.8143 8.66145 14.8 8.67195 14.7753 8.6772C14.7505 8.68245 14.755 8.68245 14.7378 8.6667C14.7295 8.66166 14.7225 8.65464 14.7175 8.64627C14.7126 8.63789 14.7097 8.62843 14.7093 8.6187C14.7084 8.58832 14.7041 8.55814 14.6965 8.5287C14.6825 8.51833 14.6664 8.51116 14.6493 8.5077C14.5435 8.5077 14.5345 8.64495 14.542 8.69295C14.5345 8.70345 14.53 8.9472 14.6748 9.0162" fill="white"/>
<path d="M16.3997 11.834C16.2834 12.0266 16.2128 12.2433 16.1931 12.4674C16.1735 12.6915 16.2054 12.9171 16.2864 13.127C16.3589 13.349 16.507 13.5385 16.7049 13.6625C16.7341 13.6943 16.7704 13.7186 16.8109 13.7335C16.8513 13.7484 16.8948 13.7535 16.9376 13.7483C16.9804 13.7431 17.0213 13.7278 17.0571 13.7036C17.0928 13.6794 17.1222 13.6471 17.1429 13.6093C17.3409 13.376 17.3462 12.788 17.4377 12.671C17.5052 12.4535 17.6679 12.491 17.7474 12.5863C17.8196 12.699 17.9169 12.7934 18.0317 12.8623C18.0693 12.9069 18.1155 12.9436 18.1675 12.9702C18.2195 12.9968 18.2763 13.0127 18.3345 13.0171C18.3927 13.0215 18.4513 13.0143 18.5067 12.9958C18.5621 12.9773 18.6132 12.948 18.6572 12.9095C18.8219 12.8051 18.9412 12.6422 18.9909 12.4535C19.0635 11.5615 19.0718 10.6654 19.0157 9.77225C19.0059 9.7085 18.8237 8.66975 18.8237 8.6585C18.8237 8.64725 18.7974 8.129 18.7787 8.00675C18.7742 7.95425 18.7637 7.93775 18.8109 7.94375C18.8604 7.99625 18.8649 8.0015 18.8964 8.012C18.9459 8.02325 18.9909 7.92725 18.9617 7.83725C18.8117 7.51925 18.6519 7.196 18.4974 6.88325C18.4622 6.836 18.4127 6.79325 18.3519 6.8885C18.3152 6.92647 18.2863 6.97134 18.267 7.02051C18.2477 7.06968 18.2383 7.12218 18.2394 7.175C18.2537 7.4 18.2889 7.63625 18.3017 7.86425C18.3639 8.2505 18.4254 8.64275 18.4877 9.035C18.5454 9.8675 18.5627 10.6302 18.6197 11.4628C18.633 11.7636 18.5638 12.0624 18.4194 12.3268C18.4194 12.3268 18.2837 12.422 18.1899 12.3215C18.0599 12.1634 17.9459 11.9928 17.8494 11.8123C17.7099 11.6698 17.6169 11.7065 17.5179 11.8123C17.2732 12.196 17.0784 12.6093 16.9382 13.0423C16.8887 13.127 16.7544 13.2013 16.6059 13.037C16.4098 12.6696 16.3374 12.2488 16.3997 11.837" fill="white"/>
<path d="M14.7644 6.9732C14.8593 7.05446 14.9324 7.15815 14.9771 7.27486C15.0217 7.39156 15.0365 7.51757 15.0201 7.64145C14.9849 7.87995 14.8941 8.1447 14.8266 8.10795C14.7591 8.0712 14.8746 7.86945 14.8079 7.65195C14.7666 7.5087 14.5311 7.25445 14.5559 7.17495C14.5458 7.14614 14.5441 7.11504 14.5512 7.08534C14.5582 7.05564 14.5736 7.02857 14.5955 7.00735C14.6175 6.98612 14.645 6.97163 14.6749 6.96557C14.7049 6.95952 14.7359 6.96217 14.7644 6.9732Z" fill="white"/>
<path d="M16.9539 12.0727C16.9698 11.7223 16.9575 11.3712 16.9171 11.0227C16.9066 10.7475 16.6381 8.47274 16.5811 8.26124C16.5151 7.86449 16.8444 8.20874 16.8061 7.97549C16.6936 7.68374 16.4109 7.25474 16.3231 7.00049C16.2669 6.88874 16.2901 6.79349 16.1731 6.97349C16.0705 7.29511 16.034 7.63416 16.0659 7.97024C16.4022 9.54561 16.581 11.1505 16.5999 12.7612C16.7341 12.7612 16.8894 12.417 16.9569 12.0727" fill="white"/>
<path d="M19.1098 9.70003C19.2726 9.79528 19.3641 10.288 19.3468 10.4313C19.3161 10.6908 19.2321 10.972 19.1713 10.9345C19.1106 10.897 19.1841 10.5483 19.1526 10.4418C19.1143 10.288 18.9006 10.0075 18.9223 9.92278C18.8788 9.74728 19.0168 9.67378 19.1098 9.69778" fill="white"/>
<path d="M8.13235 11.171C8.28235 11.2348 8.37235 11.6008 8.35735 11.7065C8.3266 11.897 8.24635 12.0988 8.18935 12.0815C8.13235 12.0643 8.20285 11.795 8.1706 11.7155C8.15935 11.5198 7.9456 11.4155 7.9531 11.3338C7.9126 11.18 8.0386 11.1538 8.1346 11.1748" fill="white"/>
<path d="M4.07487 6.85177C4.29987 6.92677 4.31187 7.29652 4.29987 7.40827C4.26912 7.60402 4.18887 7.81626 4.13037 7.79001C4.07187 7.76376 4.13037 7.49827 4.09887 7.41502C4.06662 7.29277 3.87387 7.08652 3.89937 7.02277C3.85587 6.89002 3.98412 6.82627 4.07712 6.85327" fill="white"/>
<path d="M8.49693 8.60098C8.40886 8.67025 8.3476 8.76798 8.32366 8.87743C8.29971 8.98689 8.31457 9.10127 8.36568 9.20098C8.39526 9.24512 8.43845 9.27839 8.48868 9.29572C8.53891 9.31305 8.59343 9.31349 8.64393 9.29698C8.81268 9.32323 8.91243 8.94148 8.91243 8.94148C8.91243 8.94148 8.91768 8.83573 8.71968 9.03673C8.63418 9.05848 8.62368 9.02098 8.60193 8.96773C8.58196 8.86857 8.59081 8.76577 8.62743 8.67148C8.65818 8.57548 8.59368 8.53349 8.49693 8.60248" fill="white"/>
<path d="M9.78548 6.70845C9.71043 6.76943 9.64854 6.84501 9.60355 6.93061C9.55856 7.01621 9.53141 7.11005 9.52374 7.20645C9.51699 7.33395 9.49524 7.33395 9.57099 7.41869C9.62723 7.50869 9.68273 7.49819 9.79223 7.42919C9.82038 7.40946 9.8443 7.3843 9.86259 7.3552C9.88087 7.32609 9.89316 7.29362 9.89872 7.2597C9.92572 7.1097 9.76073 7.3287 9.73823 7.16445C9.70298 7.0107 9.80798 6.9522 9.90922 6.79845C9.90922 6.69795 9.90922 6.62895 9.78548 6.70845Z" fill="white"/>
<path d="M10.8287 6.91554C10.7875 7.10557 10.7624 7.29876 10.7537 7.49304C10.723 7.63629 10.8895 7.69929 10.9622 7.51404C11.0372 7.31205 11.077 7.09872 11.08 6.88329C11.047 6.66579 10.915 6.67704 10.8287 6.91554Z" fill="white"/>
<path d="M17.379 10.6628C17.403 10.641 18.3015 9.92029 18.3015 9.92029C18.3937 9.88354 18.3765 10.2953 18.3322 10.2863C18.0597 10.589 17.7373 10.8427 17.379 11.0363C17.3355 11.0685 17.2905 10.7558 17.379 10.6658" fill="white"/>
<path d="M18.2 10.6572C18.3605 10.7472 18.425 11.2662 18.4055 11.4072C18.4115 11.6832 18.2555 11.9052 18.191 11.8737C18.1265 11.8422 18.1977 11.5294 18.167 11.4177C18.0975 11.2488 18.0471 11.0727 18.017 10.8927C17.972 10.7172 18.1025 10.6219 18.1992 10.6542" fill="white"/>
<path d="M12.8438 12.9043C12.9177 12.8104 13.0037 12.7267 13.0996 12.6553C13.1284 12.6408 13.1614 12.6365 13.193 12.6432C13.2246 12.6499 13.253 12.6671 13.2736 12.6921C13.2893 12.7881 13.2181 12.8833 13.2406 13.0153C13.2586 13.0686 13.2736 13.1323 13.3606 13.1061C13.4173 13.0559 13.4837 13.0178 13.5556 12.9941C13.6276 12.9703 13.7036 12.9615 13.7791 12.9681C13.8916 12.9681 13.8923 13.1796 13.8256 13.1796C13.6276 13.234 13.436 13.3095 13.2541 13.4046C13.2286 13.4229 13.1968 13.4304 13.1658 13.4255C13.1348 13.4206 13.1069 13.4036 13.0883 13.3783C13.0709 13.351 13.0604 13.3199 13.0576 13.2876C13.0549 13.2554 13.06 13.2229 13.0726 13.1931C13.0801 13.0866 13.0418 13.0288 12.9616 13.0341C12.9016 13.0761 12.8498 13.0971 12.8198 13.0236C12.8093 12.9651 12.8048 12.9336 12.8438 12.9013" fill="white"/>
<path d="M19.1484 13.1853C19.1739 13.2115 19.1882 13.2467 19.1882 13.2832C19.1882 13.3198 19.1739 13.3549 19.1484 13.3811C19.0839 13.4501 19.0412 13.4816 18.9767 13.5506C18.9482 13.6091 18.9294 13.6938 19.0194 13.7201C19.1867 13.7734 19.5766 13.4951 19.5766 13.4816C19.5975 13.4626 19.6122 13.4378 19.6187 13.4104C19.6253 13.383 19.6234 13.3542 19.6134 13.3278C19.5766 13.2806 19.4949 13.3068 19.4401 13.3068C19.4116 13.3068 19.3254 13.2858 19.3651 13.2063C19.394 13.159 19.4176 13.1087 19.4356 13.0563C19.4604 12.9873 19.4409 12.9453 19.3426 12.9063C19.2632 12.8932 19.1821 12.8932 19.1027 12.9063C19.0449 12.9221 19.0277 12.9543 19.0142 13.0286C19.0179 13.1448 19.0824 13.1396 19.1499 13.1876" fill="white"/>
</g>
<defs>
<clipPath id="clip0_226_8747">
<rect width="24" height="24" fill="white" transform="translate(0 0.940918)"/>
</clipPath>
</defs>
</svg>
