<svg width="209" height="81" viewBox="0 0 209 81" fill="none" xmlns="http://www.w3.org/2000/svg">
<path d="M208.211 44.4003C207.884 42.0326 207.033 39.7677 205.719 37.7709C205.107 36.8448 204.404 35.9824 203.619 35.1969C200.663 32.2472 196.683 30.5511 192.508 30.4616C188.332 30.3721 184.283 31.896 181.203 34.7163C178.79 32.4904 175.753 31.0568 172.5 30.6083C171.754 30.5053 171.002 30.4536 170.249 30.4536C167.328 30.4579 164.463 31.2507 161.956 32.7482C159.449 34.2457 157.393 36.3925 156.004 38.9617C154.616 41.531 153.947 44.4274 154.069 47.3453C154.19 50.2631 155.097 53.0941 156.694 55.5392C157.302 56.4682 158.005 57.3319 158.791 58.1165L181.22 80.5589L185.795 76L163.349 53.5576C162.552 52.7606 161.899 51.8305 161.421 50.8091C160.807 49.4961 160.493 48.0635 160.5 46.6144C160.507 45.1653 160.835 43.7358 161.46 42.4286C162.134 41.023 163.136 39.7996 164.38 38.861C165.625 37.9225 167.077 37.2961 168.613 37.0346C170.15 36.7731 171.727 36.8841 173.212 37.3581C174.697 37.8322 176.047 38.6555 177.148 39.7591L190.436 53.0507L192.714 50.7729C193.014 50.4738 193.252 50.1186 193.414 49.7274C193.577 49.3363 193.66 48.9169 193.66 48.4934C193.66 48.0699 193.577 47.6506 193.414 47.2594C193.252 46.8683 193.014 46.513 192.714 46.214L185.775 39.2752C187.64 37.6648 190.046 36.8196 192.508 36.9095C194.97 36.9994 197.307 38.0176 199.05 39.7598C200.793 41.5019 201.811 43.8388 201.902 46.3012C201.992 48.7636 201.148 51.169 199.538 53.0343C199.383 53.212 199.225 53.3832 199.057 53.551L194.995 57.6129L190.387 62.2212L185.828 57.6722L172.477 44.3213C172.178 44.0217 171.822 43.7841 171.431 43.6219C171.039 43.4598 170.62 43.3763 170.196 43.3763C169.772 43.3763 169.353 43.4598 168.962 43.6219C168.57 43.7841 168.215 44.0217 167.915 44.3213C167.615 44.6206 167.378 44.9759 167.216 45.367C167.054 45.7581 166.97 46.1774 166.97 46.6007C166.97 47.0241 167.054 47.4433 167.216 47.8345C167.378 48.2256 167.615 48.5809 167.915 48.8802L190.384 71.3522L203.619 58.1264C205.128 56.6247 206.324 54.8389 207.138 52.8721C207.952 50.9054 208.368 48.7968 208.363 46.6682C208.364 45.9097 208.314 45.1519 208.211 44.4003Z" fill="white"/>
<path d="M193.847 18.103C193.848 18.1161 193.848 18.1293 193.847 18.1425C192.952 20.7811 191.253 23.0731 188.988 24.6964C186.724 26.3197 184.008 27.1926 181.222 27.1926C178.435 27.1926 175.719 26.3197 173.455 24.6964C171.19 23.0731 169.491 20.7811 168.596 18.1425C168.596 18.1425 168.596 18.1161 168.596 18.103C168.437 17.6194 168.395 17.1049 168.474 16.602C168.553 16.0991 168.75 15.622 169.049 15.2103C169.349 14.7985 169.742 14.4637 170.196 14.2335C170.65 14.0033 171.152 13.8843 171.661 13.8864C172.335 13.8856 172.992 14.0961 173.54 14.4881C174.088 14.8802 174.499 15.4341 174.716 16.072C175.109 17.2466 175.813 18.293 176.752 19.1004C177.692 19.9077 178.832 20.4459 180.053 20.6581C181.273 20.8703 182.528 20.7485 183.685 20.3057C184.842 19.8628 185.858 19.1154 186.625 18.1425C187.115 17.5216 187.496 16.8213 187.75 16.072C187.836 15.8137 187.956 15.568 188.106 15.3413C188.396 14.899 188.79 14.5349 189.254 14.2812C189.718 14.0274 190.237 13.8918 190.766 13.8864C191.276 13.8817 191.78 13.9988 192.236 14.2278C192.693 14.4569 193.088 14.7914 193.389 15.2035C193.69 15.6157 193.889 16.0937 193.968 16.5979C194.048 17.1021 194.006 17.6181 193.847 18.103Z" fill="white"/>
<path d="M190.786 13.8867C190.251 13.8862 189.725 14.019 189.254 14.273C188.783 14.527 188.383 14.8943 188.09 15.3417C187.94 15.5684 187.82 15.8141 187.735 16.0724C187.48 16.8217 187.1 17.5219 186.609 18.1428C185.841 19.1127 184.825 19.8572 183.668 20.2981C182.512 20.739 181.258 20.8598 180.039 20.6478C178.82 20.4359 177.68 19.899 176.741 19.0938C175.801 18.2885 175.096 17.2447 174.7 16.0724C174.483 15.4345 174.072 14.8806 173.524 14.4885C172.976 14.0965 172.319 13.886 171.645 13.8867C171.136 13.8847 170.634 14.0037 170.18 14.2339C169.726 14.464 169.333 14.7988 169.034 15.2106C168.734 15.6224 168.537 16.0994 168.459 16.6024C168.38 17.1053 168.422 17.6198 168.581 18.1033C168.581 18.1033 168.581 18.1297 168.581 18.1428C169.476 20.7815 171.175 23.0735 173.439 24.6968C175.704 26.3201 178.42 27.193 181.206 27.193C183.992 27.193 186.708 26.3201 188.973 24.6968C191.237 23.0735 192.936 20.7815 193.831 18.1428C193.832 18.1297 193.832 18.1165 193.831 18.1033C193.99 17.6213 194.032 17.1087 193.954 16.6073C193.876 16.1059 193.681 15.63 193.384 15.2186C193.087 14.8073 192.697 14.4721 192.245 14.2406C191.794 14.0091 191.294 13.8878 190.786 13.8867Z" fill="white"/>
<path d="M174.335 15.3349V22.9616H171.468C170.175 21.5775 169.192 19.9335 168.585 18.1394C168.585 18.1394 168.585 18.1131 168.585 18.0999C168.426 17.6163 168.384 17.1019 168.463 16.5989C168.541 16.096 168.738 15.619 169.038 15.2072C169.337 14.7954 169.73 14.4606 170.184 14.2305C170.638 14.0003 171.14 13.8813 171.649 13.8833C172.182 13.8844 172.706 14.0175 173.175 14.2708C173.644 14.5242 174.042 14.8898 174.335 15.3349Z" fill="white"/>
<path d="M194.357 11.714C193.298 11.0133 192.056 10.6391 190.786 10.6376C189.687 10.6362 188.606 10.9161 187.646 11.4507C187.153 10.144 186.273 9.01861 185.124 8.22433C183.976 7.43005 182.612 7.00457 181.215 7.00457C179.819 7.00457 178.455 7.43005 177.307 8.22433C176.158 9.01861 175.278 10.144 174.785 11.4507C173.749 10.8755 172.575 10.5959 171.391 10.6424C170.207 10.6888 169.058 11.0595 168.07 11.714C168.584 8.59825 170.188 5.76636 172.596 3.72324C175.004 1.68012 178.059 0.558594 181.217 0.558594C184.375 0.558594 187.43 1.68012 189.838 3.72324C192.246 5.76636 193.85 8.59825 194.364 11.714H194.357Z" fill="white"/>
<path d="M193.848 18.103C193.85 18.1161 193.85 18.1293 193.848 18.1425C193.242 19.9372 192.259 21.5814 190.965 22.9647H188.098V15.3347C188.389 14.8923 188.785 14.5286 189.251 14.2759C189.717 14.0233 190.237 13.8895 190.767 13.8864C191.278 13.8817 191.782 13.9988 192.238 14.2278C192.694 14.4569 193.089 14.7914 193.39 15.2035C193.692 15.6157 193.89 16.0937 193.97 16.5979C194.049 17.1021 194.008 17.6181 193.848 18.103Z" fill="white"/>
<path d="M43.706 30.7495C43.92 30.7495 44.0352 30.845 44.0352 31.0392V34.9628C44.0433 35.0079 44.0405 35.0542 44.0269 35.0979C44.0132 35.1416 43.9892 35.1813 43.9568 35.2136C43.9245 35.246 43.8847 35.27 43.841 35.2837C43.7974 35.2973 43.751 35.3002 43.706 35.292C42.0292 35.2964 40.4067 34.6983 39.1339 33.6067C38.0126 34.7324 36.3602 35.2942 34.1767 35.292C32.4212 35.292 30.6272 34.6984 28.7949 33.5112C27.498 34.6984 25.7907 35.292 23.6731 35.292C22.2246 35.2653 20.8158 34.8144 19.6211 33.9951C19.3183 36.613 18.3571 38.6451 16.7376 40.0912C15.1181 41.5373 12.871 42.2604 9.99633 42.2604C6.94828 42.2604 4.61451 41.5428 2.99502 40.1077C1.37553 38.6725 0.564694 36.5275 0.5625 33.6725C0.5625 31.4891 1.03869 28.9501 1.99107 26.0557L5.44729 26.9872C4.84516 28.7429 4.51222 30.5795 4.4598 32.4349C4.47955 34.1904 4.96013 35.5071 5.90153 36.3848C6.84294 37.2626 8.21007 37.7015 10.0029 37.7015C13.6105 37.7015 15.4144 35.6804 15.4144 31.6383V19.502L19.6935 18.9819V29.7752C20.7702 30.3934 21.9842 30.7329 23.2254 30.7627C25.3233 30.7627 26.3711 29.5843 26.3689 27.2275L26.3393 22.8858L30.6481 22.3361V28.689C30.6429 29.2216 30.5889 29.7527 30.4868 30.2755C31.426 30.5954 32.411 30.76 33.4032 30.7627C35.501 30.7627 36.5489 29.5843 36.5467 27.2275L36.5138 19.5152L40.7929 18.9951V28.689C40.7929 29.0181 40.7731 29.4757 40.7304 30.0813C41.6534 30.5421 42.6746 30.7715 43.706 30.7495Z" fill="white"/>
<path d="M49.9931 30.7495C50.2103 30.7495 50.3222 30.845 50.3222 31.0392V34.9628C50.3304 35.0078 50.3276 35.0542 50.3139 35.0979C50.3003 35.1415 50.2762 35.1813 50.2439 35.2136C50.2115 35.246 50.1718 35.27 50.1281 35.2837C50.0844 35.2973 50.0381 35.3002 49.9931 35.292H43.706C43.6611 35.2994 43.6151 35.296 43.5718 35.282C43.5285 35.2681 43.4891 35.2441 43.4569 35.2119C43.4248 35.1797 43.4007 35.1403 43.3868 35.097C43.3729 35.0537 43.3695 35.0077 43.3769 34.9628V31.0392C43.3769 30.845 43.4855 30.7495 43.706 30.7495H49.9931Z" fill="white"/>
<path d="M56.2809 30.7495C56.4982 30.7495 56.6101 30.845 56.6101 31.0392V34.9628C56.6175 35.0077 56.6141 35.0537 56.6002 35.097C56.5862 35.1403 56.5622 35.1797 56.53 35.2119C56.4978 35.2441 56.4585 35.2681 56.4151 35.282C56.3718 35.296 56.3258 35.2994 56.2809 35.292H49.9939C49.9489 35.3002 49.9025 35.2973 49.8588 35.2837C49.8152 35.27 49.7754 35.246 49.7431 35.2136C49.7107 35.1813 49.6867 35.1415 49.673 35.0979C49.6594 35.0542 49.6565 35.0078 49.6647 34.9628V31.0392C49.6647 30.845 49.7701 30.7495 49.9939 30.7495H56.2809Z" fill="white"/>
<path d="M59.6813 30.7495C59.8952 30.7495 60.0104 30.845 60.0104 31.0392V34.9628C60.0186 35.0078 60.0158 35.0542 60.0021 35.0979C59.9885 35.1415 59.9644 35.1813 59.9321 35.2136C59.8997 35.246 59.86 35.27 59.8163 35.2837C59.7726 35.2973 59.7263 35.3002 59.6813 35.292H56.281C56.236 35.3002 56.1896 35.2973 56.1459 35.2837C56.1023 35.27 56.0625 35.246 56.0302 35.2136C55.9978 35.1813 55.9738 35.1415 55.9601 35.0979C55.9465 35.0542 55.9436 35.0078 55.9518 34.9628V31.0392C55.9518 30.845 56.0605 30.7495 56.281 30.7495H59.6813Z" fill="white"/>
<path d="M70.6017 31.0391L70.6346 34.9627C70.642 35.0076 70.6386 35.0536 70.6247 35.0969C70.6108 35.1403 70.5867 35.1796 70.5545 35.2118C70.5224 35.244 70.483 35.268 70.4397 35.282C70.3963 35.2959 70.3503 35.2993 70.3054 35.2919C67.5405 35.2919 65.5424 34.6006 64.3114 33.2182C62.8411 34.6006 61.2962 35.2919 59.6767 35.2919C59.6318 35.2993 59.5858 35.2959 59.5425 35.282C59.4992 35.268 59.4598 35.244 59.4276 35.2118C59.3955 35.1796 59.3714 35.1403 59.3575 35.0969C59.3436 35.0536 59.3402 35.0076 59.3476 34.9627V31.0391C59.3476 30.8449 59.4562 30.7494 59.6767 30.7494C60.8377 30.7783 61.9759 30.4244 62.9157 29.7422C62.8729 29.2254 62.8532 28.8271 62.8532 28.544L62.8202 12.1747L67.0994 11.625L67.1323 27.1187C67.1323 28.374 67.3857 29.2923 67.8927 29.8738C68.3996 30.4554 69.194 30.7472 70.2758 30.7494C70.4931 30.7494 70.6017 30.8449 70.6017 31.0391Z" fill="white"/>
<path d="M70.3083 35.2856C70.2633 35.2938 70.217 35.291 70.1733 35.2774C70.1296 35.2637 70.0899 35.2397 70.0575 35.2073C70.0252 35.175 70.0011 35.1352 69.9875 35.0915C69.9738 35.0478 69.971 35.0015 69.9792 34.9565L70.0121 31.0329C70.0121 30.8387 70.1207 30.7432 70.3413 30.7432C72.4611 30.7432 73.5199 29.5648 73.5177 27.208L73.4881 19.4957L77.7968 18.9756V28.6695C77.7968 33.0825 75.3007 35.2878 70.3083 35.2856ZM74.1036 43.3897L70.9502 40.312L74.0312 37.1981L77.2076 40.312L74.1036 43.3897Z" fill="white"/>
<path d="M94.0348 30.7495H102.366L101.234 35.2854H87.3594V30.7495H90.651C89.848 29.5 89.4102 28.0509 89.387 26.5658C89.3702 25.7944 89.5209 25.0284 89.829 24.3209C90.137 23.6133 90.5949 22.9811 91.1711 22.4677C92.3493 21.3755 93.9066 20.7852 95.5128 20.8219C96.9413 20.8219 98.822 21.2608 101.155 22.1386L99.9861 25.7594C98.4083 25.1779 97.1443 24.886 96.1941 24.8838C95.3676 24.834 94.5542 25.1079 93.9262 25.6475C93.6476 25.9246 93.429 26.2561 93.284 26.6214C93.139 26.9866 93.0708 27.3778 93.0835 27.7706C93.1033 28.8351 93.4339 29.8706 94.0348 30.7495Z" fill="white"/>
<path d="M117.665 12.1747L121.944 11.625V28.544C121.944 33.0404 119.448 35.2875 114.456 35.2853H104.117L103.402 30.7494H109.689L106.934 16.9245L111.18 15.8548L113.679 30.733H114.489C115.568 30.733 116.363 30.4411 116.872 29.8574C117.381 29.2737 117.634 28.3553 117.632 27.1023L117.665 12.1747Z" fill="white"/>
<path d="M133.449 19.1465C135.588 19.1465 137.344 19.8542 138.715 21.2696C140.087 22.685 140.774 24.581 140.776 26.9576V34.5283C140.776 39.6699 136.465 42.2406 127.843 42.2406L127.389 38.7087C130.522 38.7087 132.818 38.385 134.275 37.7377C135.736 37.0793 136.474 36.0063 136.497 34.4954C135.466 34.9821 134.345 35.2468 133.205 35.2722C130.958 35.2722 129.142 34.5492 127.757 33.103C126.373 31.6569 125.681 29.7225 125.684 27.2999C125.684 24.9431 126.424 22.9933 127.905 21.4507C128.616 20.6988 129.476 20.1051 130.432 19.7081C131.387 19.3111 132.415 19.1197 133.449 19.1465ZM129.541 27.1847C129.541 28.4355 129.909 29.3857 130.644 30.0352C131.379 30.6848 132.373 30.9986 133.626 30.9767C134.602 30.9601 135.571 30.8185 136.51 30.5553V27.2637C136.51 26.0984 136.201 25.1801 135.585 24.5086C135.268 24.1727 134.883 23.9091 134.455 23.7358C134.027 23.5626 133.567 23.4837 133.106 23.5046C132.638 23.4948 132.172 23.5802 131.738 23.7556C131.303 23.931 130.909 24.1928 130.578 24.525C130.233 24.8739 129.963 25.29 129.784 25.7474C129.606 26.2049 129.523 26.694 129.541 27.1847Z" fill="white"/>
<path d="M17.6033 48.9788C17.8633 49.8676 18.1464 50.8649 18.4591 51.9775C18.7718 53.0901 19.1175 54.2422 19.4631 55.4304C19.8087 56.6187 20.1807 57.807 20.546 58.9953C20.9114 60.1836 21.2702 61.2994 21.6158 62.3034C21.8989 61.2062 22.1864 60.0069 22.4782 58.7056C22.7701 57.4043 23.0466 56.0646 23.3077 54.6865C23.5689 53.304 23.8245 51.9259 24.0747 50.5522C24.3248 49.1785 24.5585 47.8553 24.7758 46.5825H30.026C29.2667 50.3416 28.3889 54.1555 27.3926 58.0243C26.3964 61.893 25.3255 65.5665 24.18 69.0447H19.5651C18.8102 66.9709 18.0773 64.7941 17.3663 62.5141C16.6553 60.234 15.9542 57.9485 15.263 55.6576C14.5717 57.9485 13.8794 60.234 13.1859 62.5141C12.4925 64.7941 11.7672 66.9709 11.0102 69.0447H6.40187C5.25418 65.5665 4.1855 61.893 3.19581 58.0243C2.20612 54.1555 1.32835 50.3416 0.5625 46.5825H6.03979C6.25923 47.8553 6.49842 49.1785 6.75736 50.5522C7.0163 51.9259 7.28841 53.304 7.57369 54.6865C7.85457 56.069 8.14205 57.4087 8.4361 58.7056C8.73015 60.0025 9.02859 61.2018 9.33142 62.3034C9.71984 61.2435 10.0984 60.1199 10.467 58.9328C10.8357 57.7456 11.1934 56.5562 11.5401 55.3646C11.8868 54.1752 12.2061 53.0308 12.498 51.9314C12.7876 50.8287 13.0543 49.8445 13.2913 48.969L17.6033 48.9788Z" fill="white"/>
<path d="M38.1301 51.5426C39.3368 51.5123 40.5406 51.6768 41.6949 52.0298C42.5581 52.3016 43.3421 52.7795 43.9793 53.4221C44.5609 54.0456 44.9793 54.8032 45.1972 55.6275C45.444 56.5696 45.5635 57.5405 45.5527 58.5143V68.5604C44.8615 68.7118 43.9003 68.8906 42.6693 69.0969C41.1888 69.3187 39.6928 69.421 38.1959 69.403C37.1887 69.4137 36.1833 69.3155 35.1972 69.1101C34.3745 68.9445 33.5919 68.6203 32.8931 68.1555C32.2504 67.7205 31.7356 67.1216 31.402 66.4208C31.031 65.5939 30.8532 64.6934 30.8819 63.7875C30.8547 62.9067 31.0614 62.0344 31.481 61.2595C31.8687 60.584 32.4214 60.0177 33.0873 59.6137C33.7985 59.1872 34.578 58.8865 35.3915 58.725C36.2756 58.5384 37.1771 58.4457 38.0807 58.4485C38.638 58.4449 39.1951 58.4713 39.7496 58.5274C40.1494 58.567 40.5456 58.6374 40.9346 58.7381V58.2872C40.9507 57.9245 40.8927 57.5623 40.7643 57.2228C40.6358 56.8832 40.4395 56.5734 40.1874 56.3122C39.6892 55.8162 38.8257 55.5672 37.5968 55.565C36.7827 55.5655 35.9696 55.626 35.1643 55.746C34.4579 55.8422 33.7631 56.0098 33.0906 56.2463L32.4751 52.3589C32.7548 52.27 33.1071 52.1779 33.5284 52.0824C33.9497 51.987 34.4073 51.8981 34.9043 51.8224C35.4013 51.7467 35.9247 51.6809 36.4777 51.6282C37.0307 51.5755 37.5672 51.5426 38.1301 51.5426ZM38.5185 65.6769C38.9925 65.6769 39.4468 65.6769 39.8812 65.644C40.2285 65.6309 40.5747 65.5979 40.9181 65.5452V61.8816C40.6286 61.8231 40.3364 61.7792 40.0425 61.75C39.262 61.6558 38.4729 61.6558 37.6923 61.75C37.3268 61.7955 36.9711 61.9 36.639 62.0594C36.3508 62.198 36.1044 62.4104 35.9247 62.6749C35.7417 62.9707 35.6522 63.3149 35.6679 63.6624C35.6679 64.4195 35.9214 64.9439 36.4283 65.2358C37.0761 65.5581 37.7958 65.7089 38.5185 65.6736V65.6769Z" fill="white"/>
<path d="M56.7336 69.3671C55.5776 69.382 54.4256 69.229 53.3136 68.9128C52.5382 68.6895 51.8272 68.2843 51.2398 67.7311C50.7318 67.222 50.3731 66.5833 50.203 65.8845C50.0096 65.0828 49.9168 64.2602 49.9265 63.4355V44.6732L54.7586 43.8931V62.4678C54.7541 62.8583 54.786 63.2484 54.8541 63.633C54.9078 63.95 55.0352 64.2499 55.226 64.5086C55.4368 64.7683 55.7112 64.969 56.0226 65.0912C56.4674 65.265 56.9378 65.364 57.4149 65.3842L56.7336 69.3671Z" fill="white"/>
<path d="M66.7824 51.5426C67.9892 51.5123 69.1929 51.6768 70.3473 52.0298C71.2105 52.3016 71.9945 52.7795 72.6317 53.4221C73.2134 54.045 73.6308 54.8029 73.8463 55.6275C74.0958 56.5691 74.2165 57.5402 74.2051 58.5143V68.5604C73.5138 68.7118 72.5516 68.8906 71.3183 69.0969C69.8389 69.3188 68.3441 69.4212 66.8483 69.403C65.8411 69.4137 64.8357 69.3155 63.8496 69.1101C63.0268 68.9445 62.2442 68.6203 61.5454 68.1555C60.9027 67.7205 60.3879 67.1216 60.0543 66.4208C59.6834 65.5939 59.5055 64.6934 59.5343 63.7875C59.5071 62.9067 59.7138 62.0345 60.1333 61.2595C60.5211 60.584 61.0737 60.0177 61.7396 59.6137C62.4509 59.1872 63.2304 58.8865 64.0438 58.725C64.928 58.5384 65.8294 58.4457 66.7331 58.4485C67.2904 58.4451 67.8474 58.4715 68.4019 58.5274C68.8018 58.567 69.1979 58.6374 69.5869 58.7381V58.2872C69.603 57.9245 69.5451 57.5623 69.4166 57.2228C69.2882 56.8832 69.0919 56.5734 68.8397 56.3122C68.3427 55.8151 67.4803 55.565 66.2459 55.565C65.4328 55.5656 64.6209 55.6261 63.8167 55.746C63.1103 55.8422 62.4155 56.0098 61.7429 56.2463L61.1274 52.3589C61.4072 52.27 61.7594 52.1779 62.1807 52.0824C62.6021 51.987 63.0596 51.8981 63.5566 51.8224C64.0537 51.7467 64.577 51.6809 65.13 51.6282C65.683 51.5755 66.2196 51.5426 66.7824 51.5426ZM67.1708 65.6769C67.6448 65.6769 68.0991 65.6769 68.5336 65.644C68.8808 65.6309 69.227 65.5979 69.5705 65.5452V61.8816C69.281 61.8231 68.9888 61.7792 68.6949 61.75C67.9143 61.6558 67.1252 61.6558 66.3447 61.75C65.979 61.795 65.6232 61.8995 65.2913 62.0594C65.0031 62.198 64.7567 62.4104 64.577 62.6749C64.3929 62.9704 64.3022 63.3146 64.317 63.6624C64.317 64.4195 64.5738 64.9429 65.0807 65.2358C65.7285 65.5581 66.4481 65.7089 67.1708 65.6736V65.6769Z" fill="white"/>
<path d="M85.6475 46.3223C88.994 46.3223 91.5648 46.9115 93.3598 48.0899C95.1549 49.2683 96.0524 51.1961 96.0524 53.8733C96.0524 56.5746 95.145 58.5255 93.3302 59.7258C91.5154 60.9262 88.9216 61.5252 85.5488 61.523H83.9622V69.0444H78.9062V46.9049C80.0625 46.6836 81.2309 46.532 82.4053 46.4506C83.6363 46.3651 84.7171 46.3223 85.6475 46.3223ZM85.9767 50.6343C85.6113 50.6343 85.2492 50.6343 84.8904 50.6672C84.5317 50.7001 84.2321 50.71 83.9688 50.7298V57.2143H85.5554C87.3109 57.2143 88.6275 56.9762 89.5053 56.5C90.3908 56.026 90.822 55.1373 90.822 53.8437C90.8456 53.3052 90.7323 52.7695 90.4928 52.2867C90.2658 51.8747 89.9299 51.5331 89.5218 51.2992C89.0448 51.0322 88.5225 50.8558 87.9813 50.7791C87.3158 50.6771 86.6433 50.6287 85.9701 50.6343H85.9767Z" fill="white"/>
<path d="M106.263 69.3671C105.107 69.3823 103.955 69.2293 102.843 68.9128C102.067 68.6895 101.355 68.2844 100.766 67.7311C100.258 67.222 99.8993 66.5833 99.7291 65.8845C99.537 65.0826 99.4452 64.26 99.4559 63.4355V44.6732L104.285 43.8931V62.4678C104.282 62.8583 104.314 63.2482 104.38 63.633C104.434 63.9506 104.562 64.2509 104.755 64.5086C104.964 64.7689 105.238 64.9698 105.549 65.0912C105.994 65.265 106.464 65.364 106.941 65.3842L106.263 69.3671Z" fill="white"/>
<path d="M124.251 68.462C123.207 68.745 122.146 68.9648 121.075 69.1203C119.724 69.3312 118.358 69.4347 116.99 69.4297C115.757 69.4673 114.528 69.2696 113.369 68.8471C112.477 68.5079 111.689 67.9403 111.085 67.2013C110.504 66.4632 110.095 65.6053 109.887 64.6897C109.638 63.6384 109.517 62.5608 109.528 61.4804V51.9939H114.357V60.9077C114.357 62.4635 114.562 63.587 114.972 64.2783C115.383 64.9695 116.151 65.3152 117.276 65.3152C117.606 65.3152 117.987 65.2987 118.376 65.2691C118.764 65.2395 119.11 65.1966 119.413 65.1539V51.9873H124.245L124.251 68.462Z" fill="white"/>
<path d="M133.683 65.5752C134.321 65.6146 134.96 65.5262 135.562 65.3152C135.748 65.2261 135.9 65.0816 136 64.9016C136.099 64.7217 136.139 64.5153 136.115 64.3112C136.115 63.9228 135.875 63.5837 135.401 63.2908C134.708 62.8972 133.981 62.5667 133.229 62.3033C132.472 62.0202 131.787 61.7306 131.171 61.4277C130.593 61.1504 130.062 60.7838 129.598 60.3415C129.163 59.9139 128.821 59.4006 128.594 58.8339C128.341 58.1611 128.221 57.4458 128.239 56.7273C128.21 55.9988 128.357 55.2741 128.667 54.6143C128.977 53.9544 129.441 53.3786 130.019 52.9353C131.209 52.0071 132.84 51.5418 134.914 51.5396C135.915 51.5362 136.913 51.6288 137.896 51.8161C138.669 51.9529 139.428 52.1533 140.167 52.4152L139.325 56.1743C138.723 55.9698 138.111 55.7973 137.491 55.6575C136.763 55.4987 136.019 55.4225 135.273 55.4304C133.759 55.4304 133.002 55.8517 133.002 56.6944C132.998 56.8727 133.032 57.0497 133.1 57.2144C133.189 57.3921 133.323 57.5432 133.489 57.6522C133.741 57.8243 134.006 57.9761 134.282 58.1065C134.611 58.271 135.046 58.4356 135.562 58.6463C136.467 58.9687 137.347 59.3559 138.196 59.8049C138.809 60.1227 139.365 60.5398 139.842 61.0393C140.229 61.4603 140.517 61.9632 140.684 62.5107C140.855 63.1211 140.937 63.753 140.928 64.3869C140.928 66.0678 140.296 67.3406 139.032 68.2052C137.768 69.0698 135.979 69.501 133.666 69.4988C131.662 69.541 129.669 69.1887 127.801 68.462L128.611 64.5383C129.43 64.8636 130.276 65.118 131.139 65.2987C131.975 65.4793 132.827 65.572 133.683 65.5752Z" fill="white"/>
</svg>
