<svg width="48" height="49" viewBox="0 0 48 49" fill="none" xmlns="http://www.w3.org/2000/svg">
<rect y="0.164062" width="48" height="48" rx="24" fill="#C2C2C2"/>
<path fill-rule="evenodd" clip-rule="evenodd" d="M35.7379 14.3046C37.0229 14.6506 38.0361 15.6637 38.3821 16.9488C39.0246 19.2964 38.9999 24.1892 38.9999 24.1892C38.9999 24.1892 38.9999 29.0574 38.3821 31.405C38.0361 32.69 37.0229 33.7032 35.7379 34.0492C33.3903 34.667 23.9999 34.667 23.9999 34.667C23.9999 34.667 14.6342 34.667 12.2619 34.0245C10.9769 33.6785 9.96375 32.6653 9.61779 31.3803C9 29.0574 9 24.1645 9 24.1645C9 24.1645 9 19.2964 9.61779 16.9488C9.96375 15.6637 11.0016 14.6259 12.2619 14.2799C14.6095 13.6621 23.9999 13.6621 23.9999 13.6621C23.9999 13.6621 33.3903 13.6621 35.7379 14.3046ZM28.8187 24.1645L21.0098 28.662V19.667L28.8187 24.1645Z" fill="white"/>
</svg>
